<svg id="Layer_1" data-name="Layer 1" xmlns="http://www.w3.org/2000/svg" viewBox="0 0 1024 1024"><defs><style>.cls-1{fill:#e7b2c8;}.cls-2{fill:#97794d;}.cls-3{fill:#b59e7e;}.cls-4{fill:#15984c;}.cls-5{fill:#13bf58;}.cls-6{fill:#18a852;}</style></defs><path class="cls-1" d="M403.57,896.62c9.55,6.31,19.26,12.28,29.27,17.69s20.1,10.55,30.39,15.25a417.44,417.44,0,0,0,63.35,23,362.4,362.4,0,0,0,65.58,11.73A322.71,322.71,0,0,0,658,962.9c5.42-.79,10.85-1.4,16.22-2.51l8.06-1.5,8-1.87c5.2-1.19,11-2.62,16.31-4s10.78-2.85,16.1-4.4c10.65-3.07,21.12-6.6,31.42-10.39a322.77,322.77,0,0,0,30.09-12.87,258,258,0,0,0,28-15.88A171.73,171.73,0,0,0,836.71,890,124.24,124.24,0,0,0,856,866.78,98.75,98.75,0,0,0,867.83,840c5.19-18.68,3.49-38.29-3-58.41-3.08-10.09-7.07-20.27-11.36-30.77S844.7,729.51,840.88,718a174.35,174.35,0,0,1-8.4-36.54l-.37-4.85-.17-2.42c0-.82,0-1.64,0-2.45l0-4.9c0-1.64.18-3.28.27-4.92s.16-3.28.41-4.91l.69-4.88.36-2.44.53-2.4,1.08-4.8a116.48,116.48,0,0,1,15.66-35.41A119.87,119.87,0,0,1,863,592a141.61,141.61,0,0,1,14-12.73c9.72-7.71,20-13.87,29.71-19.77,4.87-3,9.68-5.85,14.29-8.82s9.07-6,13.33-9.22a130.34,130.34,0,0,0,12-10.32,110.75,110.75,0,0,0,10.29-11.77c1.51-2.12,3.08-4.22,4.43-6.47s2.71-4.51,4-6.82c.68-1.13,1.19-2.37,1.79-3.55s1.2-2.38,1.73-3.61l1.58-3.68,1.46-3.74a131,131,0,0,0,7.39-31.55,170.42,170.42,0,0,0,.27-33.13,232.28,232.28,0,0,0-5.47-33.28q-1.9-8.28-4.36-16.48c-.8-2.73-1.66-5.45-2.54-8.16s-1.77-5.44-2.69-8.15c1.33,2.53,2.65,5.08,3.93,7.64s2.48,5.17,3.66,7.79q3.57,7.85,6.67,15.93a215.85,215.85,0,0,1,9.7,33.43,170.1,170.1,0,0,1,3.44,35.16,141.67,141.67,0,0,1-4.91,35.63A127,127,0,0,1,972,529.88a119.76,119.76,0,0,1-11.14,14.89,151.59,151.59,0,0,1-13.07,13c-4.59,4-9.31,7.75-14.09,11.26s-9.57,6.8-14.27,10.06C910,585.6,901,591.9,893.17,598.76a116.06,116.06,0,0,0-10.8,10.82,93.3,93.3,0,0,0-8.66,12,100,100,0,0,0-6.56,13.29c-.85,2.32-1.63,4.67-2.46,7l-.93,3.56-.47,1.77-.24.88c-.06.3-.11.6-.16.9a88.39,88.39,0,0,0-1,29.05,145.46,145.46,0,0,0,7.84,29.85c3.72,10.05,8.13,20.29,12.64,30.85s9.09,21.55,12.87,33.24c1,2.89,1.78,5.93,2.64,8.92.44,1.48.76,3,1.14,4.57s.73,3.06,1.06,4.61a141.65,141.65,0,0,1,2.62,19.15,118.31,118.31,0,0,1-3.78,39.16A130.26,130.26,0,0,1,883,883.94a151.51,151.51,0,0,1-24.47,29.2,202.93,202.93,0,0,1-29.41,22.55,259.9,259.9,0,0,1-31.9,17.25A348.93,348.93,0,0,1,764,966.08c-11.21,3.84-22.56,7.07-34,9.91-5.69,1.42-11.41,2.75-17.1,4s-11.11,2.4-17.11,3.44l-8.78,1.6-8.84,1.2c-5.88.91-11.82,1.3-17.73,1.85-3,.32-5.93.36-8.89.51s-5.93.27-8.89.32l-8.9,0-4.44,0-4.44-.21-8.86-.42c-3-.23-5.89-.51-8.83-.77l-4.41-.39c-1.47-.15-2.93-.38-4.39-.57l-8.76-1.17c-2.91-.46-5.81-1-8.71-1.49l-4.35-.76-4.31-.9-8.62-1.83-8.53-2.16c-11.32-3-22.53-6.42-33.44-10.54-1.37-.51-2.74-1-4.1-1.53l-4.06-1.62c-2.69-1.1-5.42-2.12-8.07-3.31l-8-3.48L489.63,954c-10.44-5.07-20.66-10.52-30.56-16.48A345.48,345.48,0,0,1,403.57,896.62Z"/><path class="cls-2" d="M660.72,726c11.83,122.22-31.92,271.21-114,290.54-8.87,2.09-39.41,2.08-100.47,2.07-67.19,0-100.78,0-111-2.21C250.41,998.36,197.23,850.1,206,726c10.11-144,109-332.43,227.39-332.21C552.93,394,647.24,586.62,660.72,726Z"/><path class="cls-2" d="M551.1,386.82a88.06,88.06,0,0,0-4.49,9.51c-8.25,20.59-6.51,39-5.74,46.21a106,106,0,0,0,20.21,51.31l-68.77,33.42Q488,453.74,483.6,380.2Z"/><path class="cls-2" d="M316,384a87.15,87.15,0,0,1,4.49,9.51c8.24,20.58,6.5,39,5.74,46.2A106,106,0,0,1,306,491.07l68.78,33.41q4.35-73.53,8.71-147.07Z"/><ellipse class="cls-2" cx="433.83" cy="289.82" rx="137.02" ry="187.45"/><path class="cls-3" d="M594.32,726c8.37,122.22-22.58,271.21-80.63,290.54-6.28,2.09-27.88,2.08-71.07,2.07-47.52,0-71.29,0-78.53-2.21-60-18.06-97.62-166.32-91.45-290.4,7.15-144,77.09-332.43,160.84-332.21C518.07,394,584.78,586.62,594.32,726Z"/><path class="cls-2" d="M522.55,35.54c4.13-3.06,73-52,138-18.43,35.41,18.33,49.81,51,53.62,60.61,19,48,2.54,100.22-25.84,133.62-44.77,52.71-111.47,49.38-119,48.87-13.82-23.86-29.25-48.77-46.45-74.4-18.06-26.92-36.14-51.74-53.81-74.49C474.3,95.36,488.19,61,522.55,35.54Z"/><path class="cls-1" d="M509.45,132.49a113.08,113.08,0,0,1,47.69,80.15c54.86-2.7,92.51-39,92.67-73.65.09-21.78-14.57-47-38-56.59C584.7,71.35,558.47,86.31,547.36,93,526.34,105.49,514.86,122.82,509.45,132.49Z"/><path class="cls-2" d="M350.05,48.18c-4.13-3.06-73-52-138-18.43-35.4,18.34-49.81,51-53.62,60.61-19,48-2.54,100.22,25.84,133.63,44.78,52.7,111.47,49.37,119,48.87,13.83-23.86,29.25-48.77,46.45-74.4,18.07-26.93,36.15-51.74,53.81-74.5C398.31,108,384.41,73.65,350.05,48.18Z"/><path class="cls-1" d="M363.15,145.14a113.08,113.08,0,0,0-47.69,80.15c-54.85-2.7-92.51-39-92.66-73.66-.1-21.77,14.57-47,38-56.59C287.91,84,314.13,99,325.24,105.59,346.26,118.13,357.74,135.47,363.15,145.14Z"/><path class="cls-4" d="M639.27,732.94,433.64,660q-.43-238.64-.86-477.25l207.51-37.18Z"/><path class="cls-5" d="M801.25,184.51l-160.78-39q-.6,293.7-1.22,587.39l162-45.48Z"/><path class="cls-6" d="M228.38,732.94,434,660q.44-238.64.86-477.25L227.36,145.55Z"/><path class="cls-5" d="M66.4,184.51l160.78-39q.6,293.7,1.22,587.39l-162-45.48Z"/><ellipse class="cls-2" cx="801.25" cy="339.73" rx="27.92" ry="42.8"/><ellipse class="cls-2" cx="66.4" cy="339.73" rx="27.92" ry="42.8"/><path class="cls-4" d="M683.31,689.55a5.45,5.45,0,0,1-1.95-3h0a9.76,9.76,0,0,1,.72-5.95h0a14.94,14.94,0,0,1,3.38-5h0a6.91,6.91,0,0,1,2.92-1.77h0a3.23,3.23,0,0,1,.61-.1h0a6,6,0,0,1,3.94.91h0c.19.12.36.26.53.39h0c-.16-1.08-.36-2.41-.57-3.8h0c-.5-3.28-1.08-6.89-1.36-8h0c0-.09,0-.16,0-.19h0a8.27,8.27,0,0,1-.72-1.71h0a2.19,2.19,0,0,1,0-1.14h0a1.33,1.33,0,0,1,1-.92h0a2.74,2.74,0,0,1,3.33,2h0a2.94,2.94,0,0,1,.07.94h0v0h0v.11h0c0,.09,0,.24,0,.41h0c0,.35.09.83.16,1.4h0c.14,1.14.35,2.65.61,4.3h0c.46,3,1,6.54,1.6,9.13h0a2.9,2.9,0,0,1,1,.2h0a1.66,1.66,0,0,1,.86.75h0a3.1,3.1,0,0,1,.29.72h0a1.74,1.74,0,0,1-.08,1.15h0a2,2,0,0,1-.63.76h0a8.54,8.54,0,0,1-.88.6h0a12.86,12.86,0,0,1,.61,1.74h0a5,5,0,0,1,.15,1h0a1.8,1.8,0,0,1-.27,1.1h0a1.32,1.32,0,0,1-.78.54h0l-.18,0h0a2.87,2.87,0,0,1-1.45-.15h0a2,2,0,0,1-.95-.79h0a3.09,3.09,0,0,1-.24-.43h0c-.48.51-1.12,1.15-1.88,1.83h0a15.51,15.51,0,0,1-5.9,3.61h-.05a4.31,4.31,0,0,1-3.84-.7Zm2.66-8.8a8.51,8.51,0,0,0-1.05,5h0a1.27,1.27,0,0,0,.49.78h0a1.39,1.39,0,0,0,1.14.12h0a9.35,9.35,0,0,0,3.39-2.23h0c1.13-1,2.31-2.28,3.44-3.43h0a11.05,11.05,0,0,0-.52-1h0a8,8,0,0,0-1.87-2.35h0a2,2,0,0,0-1.35-.52h0a1.12,1.12,0,0,0-.31.05h-.06c-1,.26-2.42,1.74-3.3,3.54Zm18.19,1.33a15.86,15.86,0,0,1-3.14-4.27h0a40.17,40.17,0,0,1-2.95-7.38h0a1.9,1.9,0,0,1-.09-.29h0a2.19,2.19,0,0,1,.06-1.41h0a1.52,1.52,0,0,1,1-.85h0a1.54,1.54,0,0,1,.3,0h0a2.1,2.1,0,0,1,1.77.62h0a2.51,2.51,0,0,1,.57,1.08h0v0h0c.07.32.14.63.22.93h0a32.54,32.54,0,0,0,2,5.86h0a8.13,8.13,0,0,0,2.07,3h0a1,1,0,0,0,.89.26h0a1,1,0,0,0,.48-.27h0a3.9,3.9,0,0,0,1.15-2.21h0a11.61,11.61,0,0,0,.15-3.2h0a29.28,29.28,0,0,0-.8-4.72h0s0-.08,0-.12h0a2.38,2.38,0,0,1,0-1.29h0a1.78,1.78,0,0,1,1.37-1.21h0l.12,0h0a1.69,1.69,0,0,1,1.21.19h0a2.22,2.22,0,0,1,.7.65h0a3.5,3.5,0,0,1,.47.9h0l0,.08v.08c0,.45.4,2.35.59,4.58h0a19.84,19.84,0,0,1-.43,7h0a4.74,4.74,0,0,1-2.59,3.23h0a4.48,4.48,0,0,1-.62.2h0a4.9,4.9,0,0,1-4.48-1.38Zm15.87-.25-.31,0h0a2.12,2.12,0,0,1-1.64-.47h0a2,2,0,0,1-.51-.7h-.21a1.91,1.91,0,0,1-1.29-.55h0l0,0,0,0a.68.68,0,0,1-.12-.21h0a.49.49,0,0,1,0-.11h0c0-.07-.05-.15-.08-.24h0c-.06-.2-.14-.46-.23-.78h0c-.19-.64-.42-1.53-.68-2.54h0a70.21,70.21,0,0,1-1.45-7.13h0a2.25,2.25,0,0,1-.85-1.08h0v0h0s0-.09,0-.14h0a1.81,1.81,0,0,1,.24-1.31h0a2.83,2.83,0,0,1,.49-.66h0c0-.11,0-.23,0-.38h0c0-.47,0-1.13-.08-1.88h0a29.14,29.14,0,0,0-.66-4.9h0l-.06-.23h0a4.47,4.47,0,0,0-.31-.63h0a4.89,4.89,0,0,1-.49-1.12h0a1.73,1.73,0,0,1,.09-1.21h0a1.88,1.88,0,0,1,1.07-.9h0l.15-.05h0a1.61,1.61,0,0,1,1.12.16h0a2.86,2.86,0,0,1,.85.67h0a5.44,5.44,0,0,1,1.21,2.31h0a2.33,2.33,0,0,1,.07.25h0a14.21,14.21,0,0,1,.39,3.09h0c0,.86,0,1.83.13,3.17h0a15.66,15.66,0,0,1,4.33-.42h0a7.11,7.11,0,0,1,5.29,2.42h0a2.91,2.91,0,0,1,.6,1.22h0a6.21,6.21,0,0,1-.27,3.3h0a20.24,20.24,0,0,1-1.51,3.49h0a56.66,56.66,0,0,1-3.45,5.49h0c-.2.29-.35.52-.37.56h0a2.23,2.23,0,0,0-.24.5h0a1.78,1.78,0,0,1-.39.69h0a1.41,1.41,0,0,1-.62.34h0Zm-2.31-8.75a40.75,40.75,0,0,0,1.29,4.19h0c.29-.37.62-.82,1-1.32h0a25.38,25.38,0,0,0,2.83-4.85h0a4.42,4.42,0,0,0,.44-2.52h0a1,1,0,0,0-.21-.44h0a3.08,3.08,0,0,0-2-.7h0a10.75,10.75,0,0,0-3.34.33h0L717,668h0c0,.26,0,.59.08,1h0a29.1,29.1,0,0,0,.48,3.38h0l.18.76Zm15.51,6.46a2.47,2.47,0,0,1-1.41-.14h0a1.47,1.47,0,0,1-.78-.73h0a6.49,6.49,0,0,1-.44-1h0a29.38,29.38,0,0,1-.86-2.94h0c-1.14-4.57-2.41-11.73-3.12-15.9h0c-.37-2.12-.72-3.92-1-5.32h0a16.23,16.23,0,0,1-.36-3.11h0a1.56,1.56,0,0,1,.21-.7h0v0h0a2,2,0,0,1,1.15-.88h0a2.42,2.42,0,0,1,1.84.42h0a2.09,2.09,0,0,1,.6.62h0a3,3,0,0,1,.33.86h0a35.33,35.33,0,0,1,.53,3.72h0c.23,1.87.55,4.54,1.11,8.39h0c.44,3,1.05,6,1.7,8.63h0c.42,1.68.86,3.18,1.29,4.38h0v0c.05.16.11.36.17.6h0a6.1,6.1,0,0,1,.18,1.12h0a2.31,2.31,0,0,1-.28,1.31h0a1.44,1.44,0,0,1-.88.65h0Zm5.23-4,.16-.82-.17.82a5.51,5.51,0,0,1-2.75-1.75h0a8.19,8.19,0,0,1-1.91-3.56h0a8.18,8.18,0,0,1-.15-3.22h0a18.4,18.4,0,0,1,1.8-6.06h0a5.72,5.72,0,0,1,3-2.79h0l.31-.09h0a5.7,5.7,0,0,1,3.63.44h0a7.39,7.39,0,0,1,3.63,3.93h0a8.85,8.85,0,0,1,.51,1.5h0a9.57,9.57,0,0,1-1.35,7.58h0a9.08,9.08,0,0,1-5,4h0a3.82,3.82,0,0,1-1.71.07ZM740,661.75a2,2,0,0,0-.23.16h0a3.94,3.94,0,0,0-.86.9h0a10.17,10.17,0,0,0-1.62,5.43h0a3.51,3.51,0,0,0,.12,1.1h0a4.85,4.85,0,0,0,.86,1.8h0a1.75,1.75,0,0,0,1.17.76h0a.93.93,0,0,0,.32,0h0a4.25,4.25,0,0,0,1.95-1.57h0a6.35,6.35,0,0,0,1.19-2.34h0v0a7.86,7.86,0,0,0,.09-3.53h0a4.61,4.61,0,0,0-1-1.85h0a2.58,2.58,0,0,0-.89-.83h0a1.63,1.63,0,0,0-.73-.15h0l-.37.15h0l0,0Zm-.26-.13-.08-.63.08.63Zm-72.36,23.61a13.57,13.57,0,0,1,1.7-3.39,15.83,15.83,0,0,1,5.76-4.66L676,677a5,5,0,0,1,2.85.57,3,3,0,0,1,1.31,2.78,5.15,5.15,0,0,1-1.64,3.8,11.77,11.77,0,0,1-4,2.63c-1.51.61-2.3,1.1-2.38,1.47s.21.74.89,1.09,2.11.48,4.32.36a18,18,0,0,0,5.33-.94,19.11,19.11,0,0,0,3.26-1.52c.82-.5,2,.2,2.48,0s.91,0,1.28.64c-.74,1.36-2.15,1.34-3.13,2.05a20,20,0,0,1-3.77,2,24.08,24.08,0,0,1-5.68,1.5l-1.38.15a16.88,16.88,0,0,1-5.12-.45,6.17,6.17,0,0,1-2.18-1.29,5.67,5.67,0,0,1-1.3-2.5A9.94,9.94,0,0,1,667.33,685.23Zm3.9.3a13.11,13.11,0,0,0,3.93-2.39c.63-.69.86-1.29.71-1.79s-.74-.42-1.73.24a5.93,5.93,0,0,0-2,1.9A16.29,16.29,0,0,0,671.23,685.53Z"/><path class="cls-4" d="M745.3,688.37a16.73,16.73,0,0,1-9.17-1.94h0a1.38,1.38,0,0,1-.69-.84h0a.91.91,0,0,1,0-.23h0a1.84,1.84,0,0,1,.28-1.17h0a2.05,2.05,0,0,1,.95-.79h0l.2-.07h0a1.6,1.6,0,0,1,1.16.17h0a10.56,10.56,0,0,0,2.63.93h0a19.31,19.31,0,0,0,2.9.42h0a18.77,18.77,0,0,0,4.3-.25h0c.47-.08.93-.17,1.38-.29h0a16.52,16.52,0,0,0,2.71-1h0a16.89,16.89,0,0,0,3.27-2h0a8.23,8.23,0,0,0,2.63-5h0a22.31,22.31,0,0,0-.58-7h0c-.16.37-.33.74-.51,1.1h0a8.8,8.8,0,0,1-1.19,1.72h0a6.08,6.08,0,0,1-2.09,1.51h0a2.83,2.83,0,0,1-.41.14h0a2.44,2.44,0,0,1-1.14,0h0a4.07,4.07,0,0,1-1.34-.52h0a5.76,5.76,0,0,1-2.43-3.3h0l-.12-.39h0a9.91,9.91,0,0,1-.18-4h0a25.14,25.14,0,0,1,1.06-4.35h0c.11-.33.34-.89.7-1.69h0a16.53,16.53,0,0,1,1.38-2.45h0a11.09,11.09,0,0,1,1.94-2.2h0a3.78,3.78,0,0,1,1.55-.85h0a3.72,3.72,0,0,1,.94-.11h0a1.36,1.36,0,0,1,.56.12h0a.64.64,0,0,1,.35.4h0a.28.28,0,0,1,0,.09h0a1.67,1.67,0,0,1-.22.91h0l.13,0h0a4.37,4.37,0,0,1,.56-.09h0a1.67,1.67,0,0,1,2,1.17h0l0,.14h0l1.29,6.91h0c.43,2.31.74,4.63,1,7h0a25.5,25.5,0,0,1,.22,6h0a11.37,11.37,0,0,1-.56,2.71h0a10.69,10.69,0,0,1-2.44,3.77h0a15.89,15.89,0,0,1-3.73,2.81h0a20.06,20.06,0,0,1-4.56,1.8h0a23.34,23.34,0,0,1-4.75.71Zm9.34-30.73a7.66,7.66,0,0,0-.54,1h0l-.54,1.15h0a10.71,10.71,0,0,0-.81,2.22h0c-.18.74-.34,1.49-.5,2.25h0a10.44,10.44,0,0,0-.23,4.54h0v0h0a4.38,4.38,0,0,0,.44,1.15h0c.14.23.25.29.32.3h0l.05,0h0A1.43,1.43,0,0,0,753,670h0a5.32,5.32,0,0,0,.44-.94h0a22,22,0,0,0,1-3.91h0a32.19,32.19,0,0,0,.4-4h0c0-1.31.1-2.63.16-4h0l-.34.49Z"/><path class="cls-4" d="M765.88,670.31a8.66,8.66,0,0,1-3.35-1.85h0a1.25,1.25,0,0,1-.41-.65h0a1.49,1.49,0,0,1,0-.52h0a2.25,2.25,0,0,1,.48-1.16h0a2.23,2.23,0,0,1,1-.74h0l.13,0h0a1.16,1.16,0,0,1,1.09.27h0a6.24,6.24,0,0,0,2,1.1h0a1.26,1.26,0,0,0,.75.06h0a1.07,1.07,0,0,0,.68-.61h0s0,0,0-.07h0c0-.05,0-.12,0-.2h0a2.24,2.24,0,0,0-.08-.83h0v0h0a3.48,3.48,0,0,0-.6-1.16h0a4.18,4.18,0,0,0-1.57-1.21h0a12.44,12.44,0,0,0-1.24-.52h0a5.07,5.07,0,0,1-1.28-.68h0a4,4,0,0,1-1.54-2.26h0a5.4,5.4,0,0,1-.13-.82h0a5.37,5.37,0,0,1,1.2-3.93h0a9.35,9.35,0,0,1,3.12-2.61h0a1.19,1.19,0,0,1,.26-.11h0a1.1,1.1,0,0,1,.9.16h0a1.2,1.2,0,0,1,.53.74h0a1.84,1.84,0,0,1,0,.25h0a2.23,2.23,0,0,1-.94,2h0a5.85,5.85,0,0,0-.84.83h0a4.36,4.36,0,0,0-.72,1.14h0a1.92,1.92,0,0,0-.17,1.08h0s0,.06,0,.08h0c.06.26.26.48.67.69h0a14.36,14.36,0,0,0,1.39.62h0a6.39,6.39,0,0,1,1.43.77h0a13.82,13.82,0,0,1,1.6,1.4h0a5.17,5.17,0,0,1,1.18,1.84h0c.08.22.15.45.21.67h0a6.14,6.14,0,0,1,.06,2.89h0a4.37,4.37,0,0,1-2.08,2.9h0a5.18,5.18,0,0,1-1.41.63h0a4.42,4.42,0,0,1-2.39-.06Zm2.6-4.14-.06-.21.06.21Zm-.12-.06-.08-.05.08.05Z"/><path class="cls-4" d="M756.53,647.74c.16-.46.35-.89.93-1a.86.86,0,0,1,1,.72,1.7,1.7,0,0,1-.13.86l-.9,2.63c-.17.45-.36.89-.93,1a.89.89,0,0,1-1-.73,1.83,1.83,0,0,1,.13-.86Z"/><path class="cls-4" d="M751.24,648.66a1.17,1.17,0,0,1,.16-1.34.87.87,0,0,1,1.23,0,1.73,1.73,0,0,1,.41.77l.86,2.64c.14.47.26.93-.16,1.34a.87.87,0,0,1-1.23,0,1.77,1.77,0,0,1-.42-.77Z"/><path class="cls-4" d="M747.29,651.2c-.31-.37-.6-.75-.38-1.29a.89.89,0,0,1,1.13-.52,2,2,0,0,1,.68.55l1.81,2.1a1.2,1.2,0,0,1,.38,1.29.89.89,0,0,1-1.13.52,1.84,1.84,0,0,1-.68-.55Z"/><path class="cls-4" d="M748.06,654.69c.46.15.9.32,1,.89a.89.89,0,0,1-.68,1,1.88,1.88,0,0,1-.86-.1l-2.65-.79c-.46-.14-.9-.31-1-.89a.87.87,0,0,1,.67-1,1.72,1.72,0,0,1,.86.09Z"/><path class="cls-4" d="M760.82,649.78c.33-.35.68-.67,1.24-.51a.89.89,0,0,1,.63,1.07,1.84,1.84,0,0,1-.47.73l-1.88,2c-.34.35-.68.67-1.24.51a.87.87,0,0,1-.63-1.07,1.74,1.74,0,0,1,.46-.73Z"/><path class="cls-4" d="M129.62,662.22c-2.61.65-6.6,3.62-8.9,5-2,1.2-4.93,2.9-8.12,2.2-1.39-.3-3.73-1.34-4-3s1.61-3.43,5.38-7.1c.82-.79,1.1-1,1.53-1.44,2-1.91,7.06-6.75,6.51-12.39-.3-3.06-2.26-6.66-5.62-8a9.38,9.38,0,0,0-6.39.06c-.63.21-2.35.84-5.09,3.43A27.53,27.53,0,0,0,98,650.66,21.46,21.46,0,0,0,96,660.57a19.26,19.26,0,0,0,2.45,8.56,16.41,16.41,0,0,0,5.76,6.13,16.69,16.69,0,0,0,6.49,2.21,21.38,21.38,0,0,0,8-.37c6-1.4,9.48-4.88,11.77-7.16,3.15-3.13,3.11-4.51,3-5.16a3.7,3.7,0,0,0-2.63-2.62A2.67,2.67,0,0,0,129.62,662.22Zm-25.46-2.71c-1.42-.83-.15-7,3.39-10.66,1.1-1.14,3.36-3.11,4.45-2.49s.28,4.29.21,4.56a11.38,11.38,0,0,1-2.32,4.22C108.83,656.43,105.41,660.24,104.16,659.51Z"/><rect class="cls-4" x="95.99" y="619.3" width="5.61" height="16.32" rx="2.76" transform="translate(-293.59 127.96) rotate(-29.2)"/><rect class="cls-4" x="108.28" y="615.51" width="5.61" height="16.32" rx="2.76" transform="translate(8.68 -1.48) rotate(0.8)"/><rect class="cls-4" x="86.92" y="627.45" width="5.61" height="16.32" rx="2.76" transform="translate(681.64 883.95) rotate(120.8)"/><rect class="cls-4" x="83.45" y="639" width="5.61" height="16.32" rx="2.76" transform="translate(736.9 593.14) rotate(92.85)"/><rect class="cls-4" x="119.94" y="618.6" width="5.61" height="16.32" rx="2.76" transform="translate(316.56 18.21) rotate(28.75)"/></svg>