<svg xmlns="http://www.w3.org/2000/svg" viewBox="0 0 1024 1024"><defs><style>.cls-1{isolation:isolate;}.cls-2{fill:#43a1ff;}.cls-3{fill:#37414f;}.cls-4{fill:#f1911f;}.cls-5{fill:#4d5a6d;}.cls-6{fill:#292f3f;}.cls-7{opacity:0.24;mix-blend-mode:multiply;}.cls-8{fill:#cc1944;}.cls-9{fill:#00877d;}.cls-10{fill:#00a19a;}.cls-11{fill:#dadada;}.cls-12{fill:#575756;}.cls-13{fill:#f6f6f6;}.cls-14{font-size:111.05px;font-family:MyriadPro-Regular, Myriad Pro;}.cls-14,.cls-21{fill:#fff;}.cls-15{fill:#424e60;}.cls-16{fill:#b3f1ff;}.cls-17{fill:#e8e8e8;}.cls-18{fill:#363f51;}.cls-19{fill:#e75257;}.cls-20{fill:#71dbf4;}.cls-21{font-size:37.09px;font-family:PTSans-Regular, PT Sans;letter-spacing:0.3em;}.cls-22{fill:#00aabc;}</style></defs><g class="cls-1"><g id="Layer_1" data-name="Layer 1"><rect class="cls-2" x="-1.14" y="-1.14" width="1026.27" height="1026.27" rx="513.13"/><path class="cls-3" d="M382.87,286.79H874a28.59,28.59,0,0,1,28.59,28.59V637.72a0,0,0,0,1,0,0H354.28a0,0,0,0,1,0,0V315.37A28.59,28.59,0,0,1,382.87,286.79Z"/><rect class="cls-4" x="381.14" y="313.64" width="494.6" height="297.22"/><path class="cls-5" d="M904,670.88,357.89,672a33.46,33.46,0,0,0-14.82-7.09c-6.75-1.26-9.89.55-13.31-1.21-3.67-1.9-7.31-7.74-6.08-25.92l609.52,0h0c.19.95,2.88,15.56-7.86,25.78C916.69,671.73,905.75,671,904,670.88Z"/><path class="cls-6" d="M933.2,645.47v7.1A19.4,19.4,0,0,1,913.79,672H343.07a19.39,19.39,0,0,1-19.4-19.38v-7.1a19.39,19.39,0,0,0,19.4,19.38H913.79A19.4,19.4,0,0,0,933.2,645.47Z"/><g class="cls-7"><path class="cls-8" d="M554.8,415.19V516.93h-68c-29.23,0-52.93-22.77-52.93-50.87a49.72,49.72,0,0,1,15.5-36,53.84,53.84,0,0,1,37.43-14.9Z"/></g><path class="cls-9" d="M551,411.38V513.12H483c-29.23,0-52.93-22.77-52.93-50.87a49.77,49.77,0,0,1,15.5-36A53.89,53.89,0,0,1,483,411.38Z"/><g class="cls-7"><path class="cls-8" d="M830.6,466.06a49.74,49.74,0,0,1-15.51,36,53.84,53.84,0,0,1-37.42,14.9H554.8V415.19H777.67C806.91,415.19,830.6,438,830.6,466.06Z"/></g><path class="cls-10" d="M826.79,462.25a49.72,49.72,0,0,1-15.5,36,53.84,53.84,0,0,1-37.43,14.9H551V411.38H773.86C803.1,411.38,826.79,434.16,826.79,462.25Z"/><path class="cls-11" d="M493.32,486.47h-1.48a20.2,20.2,0,0,1-20.18-20.18V445.18A20.2,20.2,0,0,1,491.84,425h1.48a20.2,20.2,0,0,1,20.17,20.18v21.11A20.2,20.2,0,0,1,493.32,486.47Zm-1.48-55.6a14.33,14.33,0,0,0-14.31,14.31v21.11a14.32,14.32,0,0,0,14.31,14.3h1.48a14.32,14.32,0,0,0,14.3-14.3V445.18a14.32,14.32,0,0,0-14.3-14.31Z"/><rect class="cls-12" x="483.41" y="458.22" width="16.78" height="25.31"/><path class="cls-13" d="M492.41,448.53h23.26a3.24,3.24,0,0,1,3.26,2.14,4.11,4.11,0,0,1,.24,1.48q0,17.87,0,35.72a3.35,3.35,0,0,1-3.64,3.58H469.28a3.27,3.27,0,0,1-3.34-2,4.8,4.8,0,0,1-.28-1.73q0-14,0-27.94c0-2.52,0-5,0-7.56a4.8,4.8,0,0,1,.34-1.77,3.12,3.12,0,0,1,3.06-1.9h23.35Zm.18,31.62h2.31c.32,0,.44-.12.42-.44s0-.78,0-1.17q-.19-3.53-.42-7.06a.59.59,0,0,1,.29-.57,4.6,4.6,0,0,0,1.93-5.16,4.68,4.68,0,0,0-9.17.9,4.61,4.61,0,0,0,2.23,4.37.53.53,0,0,1,.23.35c0,.62-.1,1.24-.13,1.86-.13,2.15-.25,4.3-.38,6.45,0,.39.14.47.47.47C491.09,480.14,491.84,480.15,492.59,480.15Z"/><text class="cls-14" transform="translate(574.86 518.77)">*</text><text class="cls-14" transform="translate(633.35 518.77)">*</text><text class="cls-14" transform="translate(691.84 518.77)">*</text><text class="cls-14" transform="translate(750.33 518.77)">*</text><rect class="cls-15" x="145.8" y="304.93" width="250.75" height="506.21" rx="31.65" transform="translate(-159.36 111.29) rotate(-18.02)"/><rect class="cls-16" x="160.71" y="363.38" width="220.93" height="389.31" transform="translate(-159.36 111.29) rotate(-18.02)"/><circle class="cls-17" cx="339.43" cy="767.8" r="15.44"/><circle class="cls-17" cx="161.94" cy="361" r="2.58"/><rect class="cls-17" x="179.25" y="345.58" width="50.45" height="3.16" rx="1.58" transform="translate(-97.38 80.31) rotate(-18.02)"/><path class="cls-18" d="M456,720.81l2.55,7.85a32.89,32.89,0,0,1-21.12,41.45L261.56,827.33a32.89,32.89,0,0,1-41.47-21.08l-2.56-7.85A32.89,32.89,0,0,0,259,819.48l175.87-57.22A32.9,32.9,0,0,0,456,720.81Z"/><g class="cls-7"><path class="cls-8" d="M346.28,480.83a23.6,23.6,0,0,1-1.71,18.52,25.57,25.57,0,0,1-14.7,12.23L198.6,554.33c-13.19,4.3-27.24-2.49-31.37-15.17a23.69,23.69,0,0,1,1.71-18.52,25.58,25.58,0,0,1,14.71-12.22l131.26-42.76C328.12,461.36,342.16,468.16,346.28,480.83Z"/></g><path class="cls-19" d="M344.48,479a23.65,23.65,0,0,1-1.71,18.52,25.58,25.58,0,0,1-14.71,12.22L196.8,552.53c-13.2,4.3-27.24-2.49-31.38-15.18a23.62,23.62,0,0,1,1.72-18.51,25.57,25.57,0,0,1,14.7-12.23l131.27-42.75C326.31,459.56,340.35,466.36,344.48,479Z"/><rect class="cls-20" x="105.43" y="372.11" width="220.92" height="32.05" transform="translate(-109.6 85.95) rotate(-18.04)"/><rect class="cls-20" x="201.13" y="617.53" width="220.92" height="128.83" transform="translate(-195.89 130.04) rotate(-18.04)"/><text class="cls-21" transform="translate(208.42 536.75) rotate(-18.04)">3899</text><path class="cls-22" d="M268.83,669.33a5.07,5.07,0,0,1-1.94-2.66h0a9,9,0,0,1,.33-5.49h0A13.56,13.56,0,0,1,270,656.4h0a6.31,6.31,0,0,1,2.57-1.78h0a3.78,3.78,0,0,1,.56-.13h0a5.46,5.46,0,0,1,3.64.62h0a3.84,3.84,0,0,1,.52.33h0c-.21-1-.46-2.19-.73-3.45h0c-.64-3-1.38-6.24-1.69-7.21h0a1.44,1.44,0,0,0-.06-.17h0a7.43,7.43,0,0,1-.75-1.53h0a2.06,2.06,0,0,1-.08-1h0a1.23,1.23,0,0,1,.85-.9h0a2.5,2.5,0,0,1,3.14,1.64h0a2.43,2.43,0,0,1,.12.85h0v0h0a.28.28,0,0,1,0,.1h0c0,.1,0,.22.05.38h0c0,.32.13.75.22,1.27h0c.2,1,.47,2.4.8,3.9h0c.58,2.74,1.32,5.92,2,8.26h0a2.85,2.85,0,0,1,.91.13h0a1.55,1.55,0,0,1,.82.63h0a3.2,3.2,0,0,1,.31.65h0a1.67,1.67,0,0,1,0,1.06h0a2.09,2.09,0,0,1-.53.73h0c-.26.22-.52.4-.78.59h0a10.2,10.2,0,0,1,.65,1.56h0a4.2,4.2,0,0,1,.2.92h0a1.73,1.73,0,0,1-.19,1h0a1.21,1.21,0,0,1-.68.53h0l-.16,0h0a2.6,2.6,0,0,1-1.34-.05h0a1.88,1.88,0,0,1-.91-.67h0a2,2,0,0,1-.24-.38h0c-.41.49-1,1.12-1.62,1.78h0a14.2,14.2,0,0,1-5.2,3.62h0a4,4,0,0,1-3.56-.42Zm2-8.2a7.69,7.69,0,0,0-.68,4.65h0a1.06,1.06,0,0,0,.48.68h0a1.23,1.23,0,0,0,1.06,0h0a8.52,8.52,0,0,0,3-2.23h0c1-1,2-2.2,3-3.32h0a9.82,9.82,0,0,0-.52-.87h0A7.46,7.46,0,0,0,275.2,658h0a1.8,1.8,0,0,0-1.26-.4h0l-.28.06h0l-.05,0h0c-.95.29-2.12,1.72-2.82,3.41Zm16.7.22a14.47,14.47,0,0,1-3.11-3.73h0a36.94,36.94,0,0,1-3.1-6.58h0c0-.09-.07-.18-.1-.27h0a1.91,1.91,0,0,1,0-1.29h0a1.33,1.33,0,0,1,.87-.83h0l.28-.06h0a2,2,0,0,1,1.65.47h0a2.39,2.39,0,0,1,.58,1h0v0c.08.28.17.56.25.83h0a30,30,0,0,0,2.14,5.25h0a7.46,7.46,0,0,0,2.07,2.63h0a1,1,0,0,0,.82.19h0a1.13,1.13,0,0,0,.43-.27h0a3.59,3.59,0,0,0,.92-2.09h0a10.69,10.69,0,0,0,0-2.93h0a25.58,25.58,0,0,0-1-4.27h0a.49.49,0,0,0,0-.11h0a2.27,2.27,0,0,1-.09-1.18h0a1.64,1.64,0,0,1,1.19-1.18h0l.11,0h0a1.54,1.54,0,0,1,1.11.1h0a2,2,0,0,1,.68.56h0a3.28,3.28,0,0,1,.48.8h0l0,.07,0,.07c.07.41.5,2.13.79,4.15h0a18,18,0,0,1,0,6.39h0a4.35,4.35,0,0,1-2.19,3.1h0a3.25,3.25,0,0,1-.56.22h0a4.47,4.47,0,0,1-4.17-1ZM302,660.24l-.28.07h0a2,2,0,0,1-1.53-.34h0a1.82,1.82,0,0,1-.5-.61h-.2a1.7,1.7,0,0,1-1.2-.44h0l0,0,0,0a.78.78,0,0,1-.12-.18h0a.42.42,0,0,1,0-.1h0a1.65,1.65,0,0,1-.09-.22h0c-.07-.17-.15-.4-.25-.69h0c-.21-.58-.47-1.38-.76-2.29h0a64.22,64.22,0,0,1-1.72-6.43h0a2.16,2.16,0,0,1-.84-1h0v0a.73.73,0,0,1-.05-.12h0a1.67,1.67,0,0,1,.14-1.21h0a3,3,0,0,1,.41-.63h0c0-.1,0-.21,0-.35h0c0-.43-.1-1-.18-1.71h0a27.13,27.13,0,0,0-.87-4.45h0a1.72,1.72,0,0,1-.07-.21h0a5.32,5.32,0,0,0-.32-.55h0a4.43,4.43,0,0,1-.51-1h0a1.63,1.63,0,0,1,0-1.11h0a1.69,1.69,0,0,1,.92-.88h0l.14,0h0a1.43,1.43,0,0,1,1,.08h0a2.78,2.78,0,0,1,.82.56h0a5.12,5.12,0,0,1,1.23,2h0a2.09,2.09,0,0,1,.08.23h0a12.49,12.49,0,0,1,.52,2.8h0c.08.79.14,1.67.3,2.89h0a14,14,0,0,1,3.93-.62h0a6.53,6.53,0,0,1,5,1.92h0a2.67,2.67,0,0,1,.62,1.08h0a5.79,5.79,0,0,1-.06,3h0a18.64,18.64,0,0,1-1.2,3.28h0a52.33,52.33,0,0,1-2.84,5.2h0c-.17.28-.3.5-.31.53h0a2.15,2.15,0,0,0-.19.48h0a1.7,1.7,0,0,1-.32.65h0a1.24,1.24,0,0,1-.55.34h0Zm-2.59-7.87a37.44,37.44,0,0,0,1.41,3.76h0c.24-.36.52-.78.82-1.26h0a22.74,22.74,0,0,0,2.32-4.59h0a4.15,4.15,0,0,0,.27-2.33h0a.78.78,0,0,0-.22-.38h0a2.82,2.82,0,0,0-1.92-.54h0a10.14,10.14,0,0,0-3,.49h0c-.22.06-.42.14-.62.21h0c0,.24.07.54.12.89h0a28.38,28.38,0,0,0,.63,3.06h0l.21.69Zm14.53,5a2.28,2.28,0,0,1-1.29,0h0a1.42,1.42,0,0,1-.76-.63h0a6.35,6.35,0,0,1-.45-.87h0c-.3-.69-.61-1.59-.95-2.65h0c-1.3-4.1-2.84-10.59-3.73-14.36h0c-.45-1.91-.87-3.54-1.17-4.81h0a14.25,14.25,0,0,1-.49-2.82h0a1.23,1.23,0,0,1,.14-.65h0v0h0a1.83,1.83,0,0,1,1-.87h0a2.22,2.22,0,0,1,1.7.29h0a1.71,1.71,0,0,1,.58.53h0a2.73,2.73,0,0,1,.36.77h0c.21.69.38,1.66.69,3.36h0c.3,1.71.74,4.13,1.47,7.62h0c.57,2.72,1.29,5.46,2,7.8h0a40.07,40.07,0,0,0,1.42,3.92h0v0h0c0,.14.12.33.19.54h0a6.69,6.69,0,0,1,.23,1h0a2.06,2.06,0,0,1-.19,1.21h0a1.35,1.35,0,0,1-.77.65h0Zm4.57-3.91.1-.75-.11.75a5.08,5.08,0,0,1-2.61-1.44h0a7.56,7.56,0,0,1-1.94-3.15h0a7.61,7.61,0,0,1-.32-2.94h0a16.7,16.7,0,0,1,1.32-5.64h0a5.18,5.18,0,0,1,2.57-2.71h0l.27-.1h0a5.2,5.2,0,0,1,3.35.2h0a6.8,6.8,0,0,1,3.53,3.39h0a8.81,8.81,0,0,1,.55,1.34h0a8.81,8.81,0,0,1-.82,7h0a8.29,8.29,0,0,1-4.34,3.89h0a3.43,3.43,0,0,1-1.55.15Zm.6-12.72-.21.16h0a4.19,4.19,0,0,0-.73.86h0a9.47,9.47,0,0,0-1.18,5.06h0a3.08,3.08,0,0,0,.17,1h0a4.45,4.45,0,0,0,.88,1.6h0a1.64,1.64,0,0,0,1.12.63h0a1.11,1.11,0,0,0,.29,0h0a3.93,3.93,0,0,0,1.69-1.55h0a5.71,5.71,0,0,0,1-2.21h0a7.27,7.27,0,0,0-.11-3.24h0a4.18,4.18,0,0,0-1-1.63h0a2.45,2.45,0,0,0-.86-.72h0a1.74,1.74,0,0,0-.68-.09h0l-.33.16h0l0,0Zm-.24-.11-.12-.57.12.57ZM254,666.26a12.33,12.33,0,0,1,1.36-3.19,14.67,14.67,0,0,1,5-4.59l1.05-.22a4.54,4.54,0,0,1,2.63.36,2.7,2.7,0,0,1,1.35,2.47,4.65,4.65,0,0,1-1.29,3.56,10.82,10.82,0,0,1-3.47,2.63c-1.35.64-2.05,1.13-2.11,1.48s.24.66.88,1a9,9,0,0,0,4,.09,16.76,16.76,0,0,0,4.82-1.16,17.23,17.23,0,0,0,2.89-1.57c.73-.5,1.85.07,2.28-.12s.83,0,1.2.51c-.6,1.28-1.89,1.34-2.75,2a18.18,18.18,0,0,1-3.33,2.07,22.25,22.25,0,0,1-5.12,1.68l-1.25.21a15.32,15.32,0,0,1-4.7-.13,5.39,5.39,0,0,1-2.07-1.06,5.26,5.26,0,0,1-1.33-2.21A9.33,9.33,0,0,1,254,666.26Zm3.58.06a11.74,11.74,0,0,0,3.46-2.41c.54-.66.72-1.22.55-1.67s-.69-.34-1.56.32a5.43,5.43,0,0,0-1.71,1.84A16.09,16.09,0,0,0,257.57,666.32Z"/><path class="cls-22" d="M325.44,664.83a15.36,15.36,0,0,1-8.49-1.27h0a1.26,1.26,0,0,1-.67-.73h0a.78.78,0,0,1,0-.21h0a1.68,1.68,0,0,1,.19-1.08h0a1.93,1.93,0,0,1,.82-.78h0l.19-.07h0a1.46,1.46,0,0,1,1.06.09h0a9.59,9.59,0,0,0,2.46.71h0a18,18,0,0,0,2.67.22h0a17.8,17.8,0,0,0,3.92-.46h0c.43-.1.84-.22,1.25-.35h0a14.71,14.71,0,0,0,2.42-1h0a15.66,15.66,0,0,0,2.89-2h0a7.52,7.52,0,0,0,2.13-4.68h0a20.13,20.13,0,0,0-.93-6.39h0c-.12.35-.25.69-.4,1h0a7.78,7.78,0,0,1-1,1.64h0a5.68,5.68,0,0,1-1.83,1.5h0l-.36.15h0a2.33,2.33,0,0,1-1.05.09h0a3.61,3.61,0,0,1-1.25-.41h0a5.22,5.22,0,0,1-2.41-2.87h0c0-.12-.09-.24-.12-.36h0a9,9,0,0,1-.39-3.64h0a22.61,22.61,0,0,1,.73-4h0a15.58,15.58,0,0,1,.55-1.59h0a14.86,14.86,0,0,1,1.12-2.32h0a10.47,10.47,0,0,1,1.65-2.12h0a3.63,3.63,0,0,1,1.38-.86h0a3,3,0,0,1,.85-.15h0a1.39,1.39,0,0,1,.52.08h0a.56.56,0,0,1,.33.34h0a.37.37,0,0,1,0,.09h0a1.45,1.45,0,0,1-.15.84h0l.12,0h0a2.4,2.4,0,0,1,.51-.11h0a1.52,1.52,0,0,1,1.87,1h0a.56.56,0,0,0,0,.12h0q.76,3.12,1.55,6.25h0c.52,2.09.93,4.19,1.33,6.3h0a23.48,23.48,0,0,1,.53,5.46h0a9.89,9.89,0,0,1-.37,2.5h0a9.62,9.62,0,0,1-2,3.59h0a15,15,0,0,1-3.26,2.78h0a18.2,18.2,0,0,1-4.07,1.89h0a21.66,21.66,0,0,1-4.31.91Zm6.85-28.61a6.28,6.28,0,0,0-.44.9h0c-.14.34-.28.7-.43,1.08h0a9.94,9.94,0,0,0-.62,2.08h0c-.12.68-.23,1.37-.33,2.08h0a9.52,9.52,0,0,0,0,4.17h0v0h0a4.23,4.23,0,0,0,.47,1h0c.14.2.24.25.31.26h0l.05,0h0a1.35,1.35,0,0,0,.13-.21h0a5.87,5.87,0,0,0,.35-.89h0a20.35,20.35,0,0,0,.67-3.63h0a28.61,28.61,0,0,0,.15-3.69h0c0-1.2,0-2.41-.07-3.62h0c-.11.17-.21.32-.29.46Z"/><path class="cls-22" d="M343.26,647.19a8,8,0,0,1-3.16-1.51h0a1.21,1.21,0,0,1-.41-.57h0a1.1,1.1,0,0,1-.05-.48h0a2.16,2.16,0,0,1,.37-1.09h0a2,2,0,0,1,.85-.72h0l.12-.05h0a1.09,1.09,0,0,1,1,.19h0a5.67,5.67,0,0,0,1.9.9h0a1.24,1.24,0,0,0,.69,0h0a1,1,0,0,0,.59-.6h0v-.07h0s0-.1,0-.18h0a2,2,0,0,0-.12-.75h0v0h0a3.4,3.4,0,0,0-.61-1h0a4,4,0,0,0-1.51-1h0a10.58,10.58,0,0,0-1.16-.41h0a4.67,4.67,0,0,1-1.2-.55h0a3.63,3.63,0,0,1-1.53-2h0a3.72,3.72,0,0,1-.17-.75h0a4.93,4.93,0,0,1,.88-3.66h0a8.62,8.62,0,0,1,2.7-2.56h0l.24-.11h0a1,1,0,0,1,.83.1h0a1.16,1.16,0,0,1,.53.64h0a1.89,1.89,0,0,1,.05.23h0a2,2,0,0,1-.75,1.83h0a5.27,5.27,0,0,0-.72.82h0a4.22,4.22,0,0,0-.6,1.07h0a1.85,1.85,0,0,0-.09,1h0s0,0,0,.08h0a1.06,1.06,0,0,0,.65.58h0a13,13,0,0,0,1.31.49h0a5.65,5.65,0,0,1,1.34.63h0a12.39,12.39,0,0,1,1.55,1.2h0a4.76,4.76,0,0,1,1.18,1.61h0c.09.2.16.4.23.6h0a5.62,5.62,0,0,1,.21,2.64h0a4,4,0,0,1-1.74,2.76h0a4.48,4.48,0,0,1-1.26.66h0a4.16,4.16,0,0,1-2.19.08Zm2.15-3.93-.06-.19.06.19Zm-.11,0-.07,0,.07,0Z"/><path class="cls-22" d="M333.47,627.06c.13-.42.28-.83.8-.93a.8.8,0,0,1,1,.61,1.78,1.78,0,0,1-.07.79l-.69,2.45c-.12.42-.27.83-.79.93a.8.8,0,0,1-1-.6,1.56,1.56,0,0,1,.07-.8Z"/><path class="cls-22" d="M328.69,628.2a1.07,1.07,0,0,1,.07-1.23.8.8,0,0,1,1.13-.1,1.69,1.69,0,0,1,.42.68l.92,2.37a1.07,1.07,0,0,1-.07,1.23.81.81,0,0,1-1.13.1,1.77,1.77,0,0,1-.42-.68Z"/><path class="cls-22" d="M325.22,630.74a1.09,1.09,0,0,1-.42-1.16.8.8,0,0,1,1-.53,1.51,1.51,0,0,1,.65.46l1.78,1.82a1.09,1.09,0,0,1,.41,1.16.8.8,0,0,1-1,.53,1.67,1.67,0,0,1-.65-.46Z"/><path class="cls-22" d="M326.11,633.89c.43.11.85.24,1,.76a.81.81,0,0,1-.56,1,1.73,1.73,0,0,1-.8,0l-2.47-.58c-.43-.1-.84-.24-1-.76a.79.79,0,0,1,.56-1,1.54,1.54,0,0,1,.79,0Z"/><path class="cls-22" d="M337.51,628.69c.28-.34.58-.65,1.1-.53a.8.8,0,0,1,.64.94,1.67,1.67,0,0,1-.39.7l-1.61,2c-.28.34-.58.65-1.11.53a.8.8,0,0,1-.63-.94,1.69,1.69,0,0,1,.38-.7Z"/></g></g></svg>