<?xml version="1.0" encoding="UTF-8"?> <!-- Generator: Adobe Illustrator 24.0.3, SVG Export Plug-In . SVG Version: 6.00 Build 0) --> <svg xmlns="http://www.w3.org/2000/svg" xmlns:xlink="http://www.w3.org/1999/xlink" version="1.1" id="Layer_1" x="0px" y="0px" viewBox="0 0 735.2 207.8" style="enable-background:new 0 0 735.2 207.8;" xml:space="preserve"> <style type="text/css"> .st0{fill:#2E292B;} .st1{opacity:0.6;fill:#C4DAED;} .st2{opacity:0.47;fill:#F2F4D4;} .st3{opacity:0.47;fill:#DEF1DD;} .st4{opacity:0.47;fill:#F7E6E8;} .st5{fill:#FFFFFF;} .st6{fill:none;stroke:#747D8D;stroke-width:1.11;stroke-miterlimit:10;} .st7{enable-background:new ;} .st8{fill:none;stroke:#B4BD00;stroke-width:0.5615;stroke-miterlimit:10;} .st9{fill:none;stroke:#B4BD00;stroke-width:0.3369;} .st10{fill:#B4BD00;} .st11{fill:none;stroke:#1D71B8;stroke-width:0.3369;} .st12{fill:#1D71B8;} .st13{fill:none;stroke:#3AAA35;stroke-width:0.3369;} .st14{fill:#3AAA35;} .st15{fill:none;stroke:#D26B77;stroke-width:0.3369;} .st16{fill:#D26B77;} .st17{fill:none;stroke:#D26B77;stroke-width:0.5615;stroke-miterlimit:10;} .st18{fill:none;stroke:#3AAA35;stroke-width:0.5615;stroke-miterlimit:10;} .st19{fill:none;stroke:#1D71B8;stroke-width:0.5615;stroke-miterlimit:10;} .st20{fill:#2DA8E5;} </style> <path class="st0" d="M131.6,164.9c0,5.7-4.6,10.4-10.4,10.4H51.3c-5.7,0-10.4-4.6-10.4-10.4V96.8c0-5.7,4.6-10.4,10.4-10.4h69.9 c5.7,0,10.4,4.6,10.4,10.4V164.9z"></path> <rect x="31.2" y="158.5" class="st1" width="429.7" height="6.2"></rect> <rect x="31.1" y="125.6" class="st1" width="429.7" height="5.8"></rect> <rect x="147.9" y="144.5" transform="matrix(-1.836970e-16 1 -1 -1.836970e-16 334.0061 -38.8014)" class="st1" width="77.1" height="6.2"></rect> <rect x="59" y="131.7" transform="matrix(-1.836970e-16 1 -1 -1.836970e-16 263.0909 19.5835)" class="st2" width="125.6" height="19.3"></rect> <rect x="27.1" y="164.4" transform="matrix(-1 -1.224647e-16 1.224647e-16 -1 161.9335 339.797)" class="st3" width="107.7" height="11.1"></rect> <rect x="367.1" y="117.1" transform="matrix(-1.836970e-16 1 -1 -1.836970e-16 571.2536 -298.4258)" class="st4" width="135.4" height="38.7"></rect> <rect x="12.2" y="86.4" transform="matrix(-1 -1.224647e-16 1.224647e-16 -1 427.7893 211.3934)" class="st4" width="403.3" height="38.7"></rect> <path class="st0" d="M176,164.6v-12.3c0-2.9-1.1-4.1-4.3-4.1h-13.6v16.4h-7.5v-39.1h7.5v16.1h13.7c2.9,0,4.3-1,4.3-4.5v-11.8h7.3v11 c0,4.6-1.9,6.9-5.9,8v0.3c3.7,0.8,6.1,2.7,6.1,7v12.9H176z"></path> <path class="st0" d="M219.6,164.7h-17.4c-8.3,0-12.3-3.8-12.3-12v-15.5c0-7.7,3.5-12.1,12-12.1h17.6l0.5,0.5v5.7h-16.3 c-4.3,0-6.2,1.9-6.2,5.9v4.1h18.4v6.4h-18.4v4.9c0,4,2.1,5.6,6.4,5.6h16.3v5.9L219.6,164.7z"></path> <path class="st0" d="M249.3,164.7h-21.4l-0.5-0.5v-5.7h20.4c2.9,0,4-0.6,4-3.8v-7.2c-1.6,2.6-3.8,2.9-6.7,2.9c-0.6,0-9.4,0-9.4,0 c-6.4,0-9.3-3.8-9.3-9.1v-16h7.5V140c0,2.7,1.6,4,4.3,4h9.3c2.7,0,4.3-1.6,4.3-3.8v-14.8h7.5v28.4 C259.2,161.1,256.5,164.7,249.3,164.7"></path> <path class="st0" d="M291.3,150.5c0-1.8-0.8-2.7-3.5-2.7h-14.4v10.4h14.5c2.7,0,3.5-1,3.5-3v-4.6H291.3z M291.3,134.4 c0-1.9-1.3-2.6-3.7-2.6h-14.2v9.9h14.8c2.2,0,3-0.8,3-2.7V134.4z M288.9,164.6h-23.1v-39.1h23.5c5.7,0,9.4,2.4,9.4,8.1v3.8 c0,4.9-2.2,6.4-5.7,7.2v0.3c4.5,1,5.7,3.4,5.7,7v4C298.6,163.1,294.1,164.6,288.9,164.6"></path> <path class="st0" d="M330.2,137.6c0-5.3-4.9-6.7-8.9-6.7c-5.4,0-8.9,1.3-8.9,6.9v14.5c0,4.8,2.6,6.9,8.9,6.9c4.9,0,8.9-2.1,8.9-6.7 V137.6z M321.2,165.2c-8.1,0-16.4-3.4-16.4-13.1v-14.2c0-9.9,7.8-13.1,16.4-13.1c8.5,0,16.4,3.4,16.4,13.1v14 C337.7,161.9,330.2,165.2,321.2,165.2"></path> <path class="st0" d="M368.9,137.8c0-5.6-4.9-6.9-9.1-6.9c-4.3,0-8.9,0.8-8.9,7v11.3h17.9L368.9,137.8z M368.9,164.6v-9.3H351v9.3h-7 v-26.5c0-9.9,7.7-13.2,16.3-13.2c8.5,0,16.3,3.7,16.3,12.9v26.8H368.9z"></path> <path class="st0" d="M408.1,135.4c0-2.7-1.8-3.5-4.5-3.5h-13.6v14.5h13.6c2.2,0,4.5-0.8,4.5-3.8V135.4z M408.1,164.6V156 c0-2.6-1.8-3.4-4-3.4h-14v12h-7.5v-39.1h22.8c6.9,0,10.2,3.4,10.2,9.1v6.7c0,4.6-1.4,7.2-5.4,7.7v0.3c4.3,1,5.4,3.8,5.4,7.3v8 L408.1,164.6L408.1,164.6z"></path> <path class="st0" d="M446.7,137c0-3.8-2.1-5.3-6.1-5.3h-11.2v26.5h11.7c4,0,5.6-1.8,5.6-6.1V137z M441.9,164.6h-20v-39.1h20 c8.6,0,12.3,3.7,12.3,12.3v14.5C454.2,161.1,450.3,164.6,441.9,164.6"></path> <path class="st0" d="M495.7,164.4v-14.2h-10.2v14.2H473v-39.1h12.4v14.2h10.2v-14.2h12V137c0,4.9-2.6,6.7-6.1,7.3v0.5 c4.6,1.1,6.5,3.5,6.5,7.7v12L495.7,164.4L495.7,164.4z"></path> <path class="st0" d="M536.3,134.9h-10.4v12.6h10.4V134.9z M536.3,164.4v-7.3h-10.4v7.3h-11.5v-26c0-11.2,7.7-13.7,17.4-13.7 c9.4,0,16.9,2.2,16.9,13.1v26.7L536.3,164.4L536.3,164.4z"></path> <polygon class="st0" points="577.9,164.4 577.9,150.2 567.5,150.2 567.5,164.4 555.1,164.4 555.1,125.3 567.5,125.3 567.5,139.5 577.9,139.5 577.9,125.3 590.2,125.3 590.2,164.4 "></polygon> <path class="st0" d="M613.9,165c-9.4,0-17.2-2.4-17.2-13.2V125h12.4v29.7h10.4V125h11.5v26.5C630.9,162.6,623.9,165,613.9,165"></path> <path class="st0" d="M660,164.3v-29.5h-10.2v29.5h-12.4v-26.7c0-11.2,8-13.1,17.6-13.1c9.4,0,17.6,2.2,17.6,13.1v26.7H660z"></path> <path class="st0" d="M700.5,134.8h-10.4v12.6h10.4V134.8z M700.5,164.3V157h-10.4v7.3h-11.5v-26c0-11.2,7.7-13.7,17.4-13.7 c9.4,0,16.9,2.2,16.9,13.1v26.7L700.5,164.3L700.5,164.3z"></path> <path class="st5" d="M78.1,125.2h16.3c1.8,0,3-1.4,3-3v-16.3c0-1.4-1-2.6-2.2-3V99h-3.5v3.8h-3.5v-6.1h-3.5v6.1h-3.5V99h-3.5v3.8 c-1.4,0.3-2.6,1.4-2.6,3v16.3C75.1,123.9,76.4,125.2,78.1,125.2"></path> <path class="st5" d="M106.2,150.6H93.6v-5.9h12.3c3.8,0,6.2-3,6.2-7.5v-11.5h-10.9v8.8c0,1.3-0.3,1.6-1.8,1.6h-6.1v-4.4H79.1v4.4 h-6.5c-1.4,0-1.8-0.5-1.8-1.6v-8.8H60v11.5c0,4.6,2.4,7.5,6.2,7.5h12.9v5.9H65.9c-3.8,0-6.2,3-6.2,7.5v6.7h10.5v-4.5 c0-1.3,0.3-1.6,1.8-1.6h7.3v6.1h14.4v-6.1h6.7c1.4,0,1.8,0.5,1.8,1.6v4.5h10.3v-6.7c0-4.6-1.9-7.5-5.7-7.5"></path> <line class="st6" x1="3.1" y1="41.7" x2="733.2" y2="41.7"></line> <g class="st7"> <path d="M4.2,18.5h0.9V27h5.2v0.8H4.2V18.5z"></path> <path d="M17.1,24.4c0,1.9-1.1,3.5-3.2,3.5c-2.1,0-3.2-1.6-3.2-3.5c0-1.9,1.1-3.5,3.2-3.5C15.9,20.9,17.1,22.5,17.1,24.4z M11.5,24.4c0,1.4,0.8,2.9,2.4,2.9s2.4-1.4,2.4-2.9c0-1.4-0.8-2.9-2.4-2.9S11.5,23,11.5,24.4z"></path> <path d="M23.9,27.3c0,2-0.8,3.2-3,3.2c-1.3,0-2.7-0.6-2.8-2H19c0.2,1,1.1,1.3,2,1.3c1.5,0,2.2-0.9,2.2-2.5v-0.9h0 c-0.4,0.8-1.2,1.4-2.1,1.4c-2.1,0-3-1.5-3-3.4c0-1.8,1.1-3.4,3-3.4c1,0,1.8,0.6,2.1,1.4h0v-1.2h0.8V27.3z M23.1,24.4 c0-1.3-0.6-2.8-2.2-2.8c-1.6,0-2.2,1.4-2.2,2.8c0,1.4,0.7,2.7,2.2,2.7C22.4,27,23.1,25.7,23.1,24.4z"></path> <path d="M31.5,24.4c0,1.9-1.1,3.5-3.2,3.5s-3.2-1.6-3.2-3.5c0-1.9,1.1-3.5,3.2-3.5S31.5,22.5,31.5,24.4z M26,24.4 c0,1.4,0.8,2.9,2.4,2.9c1.6,0,2.4-1.4,2.4-2.9c0-1.4-0.8-2.9-2.4-2.9C26.8,21.6,26,23,26,24.4z"></path> <path d="M36.5,18.5h1.3l3.2,8.1l3.2-8.1h1.3v9.3h-0.9v-8h0l-3.2,8h-0.8l-3.2-8h0v8h-0.9V18.5z"></path> <path d="M47.1,23.1c0.1-1.6,1.2-2.2,2.7-2.2c1.2,0,2.5,0.4,2.5,2.2v3.6c0,0.3,0.2,0.5,0.5,0.5c0.1,0,0.2,0,0.3-0.1v0.7 c-0.2,0-0.3,0.1-0.5,0.1c-0.8,0-1-0.5-1-1.2h0c-0.6,0.9-1.2,1.4-2.4,1.4c-1.2,0-2.2-0.6-2.2-2c0-1.9,1.8-2,3.6-2.2 c0.7-0.1,1.1-0.2,1.1-0.9c0-1.1-0.8-1.4-1.8-1.4c-1,0-1.8,0.5-1.8,1.6H47.1z M51.5,24.1L51.5,24.1c-0.1,0.2-0.5,0.3-0.7,0.3 c-1.4,0.2-3.1,0.2-3.1,1.5c0,0.8,0.7,1.3,1.5,1.3c1.2,0,2.4-0.8,2.3-2.1V24.1z"></path> <path d="M53.9,21.1h0.8v1.6h0c0.4-1.1,1.3-1.7,2.5-1.7v0.8c-1.5-0.1-2.5,1-2.5,2.4v3.6h-0.8V21.1z"></path> <path d="M58,18.5h0.8v5.8l3.7-3.2h1.1l-2.9,2.5l3.1,4.2h-1l-2.7-3.7l-1.3,1.1v2.5H58V18.5z"></path> <path d="M76.2,27.8h-0.6l-0.1-1.7h0c-0.6,1.3-1.9,1.9-3.2,1.9c-2.9,0-4.4-2.3-4.4-4.8c0-2.5,1.5-4.8,4.4-4.8c1.9,0,3.5,1.1,3.9,3.1 h-0.9c-0.1-1.1-1.2-2.3-3-2.3c-2.5,0-3.5,2.1-3.5,4.1c0,2,1,4.1,3.5,4.1c2.1,0,3.2-1.4,3.2-3.4h-3.2v-0.8h3.9V27.8z"></path> <path d="M77.8,21.1h0.8v1.6h0c0.4-1.1,1.3-1.7,2.5-1.7v0.8c-1.5-0.1-2.5,1-2.5,2.4v3.6h-0.8V21.1z"></path> <path d="M81.9,18.5h0.8v1.3h-0.8V18.5z M81.9,21.1h0.8v6.7h-0.8V21.1z"></path> <path d="M90.2,27.8h-0.8v-1.3h0C89,27.4,88,28,87,28c-2,0-3-1.7-3-3.5c0-1.9,1-3.5,3-3.5c1,0,2,0.5,2.3,1.5h0v-3.8h0.8V27.8z M87,27.3c1.7,0,2.4-1.5,2.4-2.9c0-1.4-0.6-2.9-2.4-2.9c-1.6,0-2.2,1.5-2.2,2.9C84.8,25.8,85.4,27.3,87,27.3z"></path> <path d="M93.3,26.4v1.4c0,0.8-0.4,1.5-1.1,1.8V29c0.4-0.2,0.6-0.8,0.6-1.2h-0.5v-1.4H93.3z"></path> <path d="M101.8,18.5h1l3.6,9.3h-0.9l-1.1-2.9h-4.2L99,27.8h-0.9L101.8,18.5z M100.4,24.2h3.7l-1.8-4.8L100.4,24.2z"></path> <path d="M107.2,18.5h0.8v9.3h-0.8V18.5z"></path> <path d="M109.6,18.5h0.8v1.3h-0.8V18.5z M109.6,21.1h0.8v6.7h-0.8V21.1z"></path> <path d="M117.6,27.3c0,2-0.8,3.2-3,3.2c-1.3,0-2.7-0.6-2.8-2h0.8c0.2,1,1.1,1.3,2,1.3c1.5,0,2.2-0.9,2.2-2.5v-0.9h0 c-0.4,0.8-1.2,1.4-2.1,1.4c-2.1,0-3-1.5-3-3.4c0-1.8,1.1-3.4,3-3.4c1,0,1.8,0.6,2.1,1.4h0v-1.2h0.8V27.3z M116.8,24.4 c0-1.3-0.6-2.8-2.2-2.8c-1.6,0-2.2,1.4-2.2,2.8c0,1.4,0.7,2.7,2.2,2.7C116.1,27,116.8,25.7,116.8,24.4z"></path> <path d="M119.2,21.1h0.8v1.2h0c0.3-0.8,1.2-1.4,2.1-1.4c1.9,0,2.5,1,2.5,2.6v4.3h-0.8v-4.2c0-1.2-0.4-2-1.7-2c-1.3,0-2.1,1-2.1,2.3 v3.9h-0.8V21.1z"></path> <path d="M126.2,21.1h0.8v1.1h0c0.4-0.8,1.1-1.3,2.2-1.3c0.9,0,1.7,0.4,1.9,1.3c0.4-0.9,1.2-1.3,2.1-1.3c1.5,0,2.2,0.8,2.2,2.4v4.5 h-0.8v-4.5c0-1.1-0.4-1.7-1.6-1.7c-1.4,0-1.8,1.2-1.8,2.4v3.8h-0.8v-4.5c0-0.9-0.4-1.7-1.4-1.7c-1.4,0-2,1.1-2,2.5v3.7h-0.8V21.1z"></path> <path d="M137.5,24.7c0,1.2,0.6,2.6,2.2,2.6c1.2,0,1.8-0.7,2.1-1.7h0.8c-0.4,1.5-1.2,2.4-2.9,2.4c-2.1,0-3-1.6-3-3.5 c0-1.8,0.9-3.5,3-3.5c2.2,0,3,1.9,3,3.8H137.5z M141.8,24c0-1.2-0.8-2.4-2.1-2.4c-1.3,0-2.1,1.2-2.2,2.4H141.8z"></path> <path d="M143.7,21.1h0.8v1.2h0c0.3-0.8,1.2-1.4,2.1-1.4c1.9,0,2.5,1,2.5,2.6v4.3h-0.8v-4.2c0-1.2-0.4-2-1.7-2c-1.3,0-2.1,1-2.1,2.3 v3.9h-0.8V21.1z"></path> <path d="M152,21.1h1.4v0.7H152v4.5c0,0.5,0.1,0.8,0.7,0.9c0.2,0,0.5,0,0.7,0v0.7c-0.2,0-0.5,0-0.7,0c-1.1,0-1.5-0.4-1.5-1.5v-4.6 H150v-0.7h1.2v-2h0.8V21.1z"></path> <path d="M158.6,23.1c0-1-0.8-1.5-1.8-1.5c-0.7,0-1.6,0.3-1.6,1.2c0,0.7,0.8,1,1.4,1.1l1.1,0.2c0.9,0.1,1.9,0.7,1.9,1.9 c0,1.5-1.4,2-2.7,2c-1.6,0-2.6-0.7-2.8-2.4h0.8c0.1,1.1,0.9,1.7,2,1.7c0.8,0,1.8-0.3,1.8-1.3c0-0.8-0.7-1-1.5-1.2l-1.1-0.2 c-1.1-0.3-1.9-0.6-1.9-1.8c0-1.4,1.3-1.9,2.5-1.9c1.3,0,2.4,0.7,2.5,2.2H158.6z"></path> <path d="M164.4,23.1c0.1-1.6,1.2-2.2,2.7-2.2c1.2,0,2.5,0.4,2.5,2.2v3.6c0,0.3,0.2,0.5,0.5,0.5c0.1,0,0.2,0,0.3-0.1v0.7 c-0.2,0-0.3,0.1-0.5,0.1c-0.8,0-1-0.5-1-1.2h0c-0.6,0.9-1.2,1.4-2.4,1.4c-1.2,0-2.2-0.6-2.2-2c0-1.9,1.8-2,3.6-2.2 c0.7-0.1,1.1-0.2,1.1-0.9c0-1.1-0.8-1.4-1.8-1.4c-1,0-1.8,0.5-1.8,1.6H164.4z M168.7,24.1L168.7,24.1c-0.1,0.2-0.5,0.3-0.7,0.3 c-1.4,0.2-3.1,0.2-3.1,1.5c0,0.8,0.7,1.3,1.5,1.3c1.2,0,2.4-0.8,2.3-2.1V24.1z"></path> <path d="M171.2,21.1h0.8v1.2h0c0.3-0.8,1.2-1.4,2.1-1.4c1.9,0,2.5,1,2.5,2.6v4.3h-0.8v-4.2c0-1.2-0.4-2-1.7-2c-1.3,0-2.1,1-2.1,2.3 v3.9h-0.8V21.1z"></path> <path d="M184.1,27.8h-0.8v-1.3h0c-0.4,0.9-1.4,1.5-2.4,1.5c-2,0-3-1.7-3-3.5c0-1.9,1-3.5,3-3.5c1,0,2,0.5,2.3,1.5h0v-3.8h0.8V27.8z M180.9,27.3c1.7,0,2.4-1.5,2.4-2.9c0-1.4-0.6-2.9-2.4-2.9c-1.6,0-2.2,1.5-2.2,2.9C178.7,25.8,179.3,27.3,180.9,27.3z"></path> <path d="M196.2,21.3c-0.3-1.4-1.5-2.2-2.8-2.2c-2.5,0-3.5,2.1-3.5,4.1c0,2,1,4.1,3.5,4.1c1.7,0,2.8-1.3,3-3h0.9 c-0.2,2.3-1.7,3.7-3.9,3.7c-2.9,0-4.4-2.3-4.4-4.8c0-2.5,1.5-4.8,4.4-4.8c1.8,0,3.5,1.1,3.7,3H196.2z"></path> <path d="M204.4,24.4c0,1.9-1.1,3.5-3.2,3.5c-2.1,0-3.2-1.6-3.2-3.5c0-1.9,1.1-3.5,3.2-3.5C203.3,20.9,204.4,22.5,204.4,24.4z M198.9,24.4c0,1.4,0.8,2.9,2.4,2.9s2.4-1.4,2.4-2.9c0-1.4-0.8-2.9-2.4-2.9S198.9,23,198.9,24.4z"></path> <path d="M205.6,21.1h0.8v1.2h0c0.3-0.8,1.2-1.4,2.1-1.4c1.9,0,2.5,1,2.5,2.6v4.3h-0.8v-4.2c0-1.2-0.4-2-1.7-2c-1.3,0-2.1,1-2.1,2.3 v3.9h-0.8V21.1z"></path> <path d="M216.6,23.1c0-1-0.8-1.5-1.8-1.5c-0.7,0-1.6,0.3-1.6,1.2c0,0.7,0.8,1,1.4,1.1l1.1,0.2c0.9,0.1,1.9,0.7,1.9,1.9 c0,1.5-1.4,2-2.7,2c-1.6,0-2.6-0.7-2.8-2.4h0.8c0.1,1.1,0.9,1.7,2,1.7c0.8,0,1.8-0.3,1.8-1.3c0-0.8-0.7-1-1.5-1.2l-1.1-0.2 c-1.1-0.3-1.9-0.6-1.9-1.8c0-1.4,1.3-1.9,2.5-1.9c1.3,0,2.4,0.7,2.5,2.2H216.6z"></path> <path d="M220.1,21.1h1.4v0.7h-1.4v4.5c0,0.5,0.1,0.8,0.7,0.9c0.2,0,0.5,0,0.7,0v0.7c-0.2,0-0.5,0-0.7,0c-1.1,0-1.5-0.4-1.5-1.5 v-4.6h-1.2v-0.7h1.2v-2h0.8V21.1z"></path> <path d="M222.7,21.1h0.8v1.6h0c0.4-1.1,1.3-1.7,2.5-1.7v0.8c-1.5-0.1-2.5,1-2.5,2.4v3.6h-0.8V21.1z"></path> <path d="M232.2,27.8h-0.8v-1.2h0c-0.4,0.9-1.3,1.4-2.3,1.4c-1.7,0-2.4-1-2.4-2.5v-4.4h0.8v4.4c0,1.2,0.5,1.8,1.8,1.8 c1.4,0,2-1.3,2-2.7v-3.5h0.8V27.8z"></path> <path d="M238.5,23.2c-0.2-1-0.8-1.6-1.9-1.6c-1.6,0-2.4,1.4-2.4,2.9c0,1.4,0.8,2.9,2.4,2.9c1,0,1.8-0.8,1.9-1.9h0.8 c-0.2,1.6-1.3,2.6-2.8,2.6c-2.1,0-3.2-1.6-3.2-3.5c0-1.9,1.1-3.5,3.2-3.5c1.4,0,2.5,0.8,2.7,2.3H238.5z"></path> <path d="M241.8,21.1h1.4v0.7h-1.4v4.5c0,0.5,0.1,0.8,0.7,0.9c0.2,0,0.5,0,0.7,0v0.7c-0.2,0-0.5,0-0.7,0c-1.1,0-1.5-0.4-1.5-1.5 v-4.6h-1.2v-0.7h1.2v-2h0.8V21.1z"></path> <path d="M244.4,18.5h0.8v1.3h-0.8V18.5z M244.4,21.1h0.8v6.7h-0.8V21.1z"></path> <path d="M252.8,24.4c0,1.9-1.1,3.5-3.2,3.5c-2.1,0-3.2-1.6-3.2-3.5c0-1.9,1.1-3.5,3.2-3.5C251.7,20.9,252.8,22.5,252.8,24.4z M247.3,24.4c0,1.4,0.8,2.9,2.4,2.9s2.4-1.4,2.4-2.9c0-1.4-0.8-2.9-2.4-2.9S247.3,23,247.3,24.4z"></path> <path d="M254,21.1h0.8v1.2h0c0.3-0.8,1.2-1.4,2.1-1.4c1.9,0,2.5,1,2.5,2.6v4.3h-0.8v-4.2c0-1.2-0.4-2-1.7-2c-1.3,0-2.1,1-2.1,2.3 v3.9H254V21.1z"></path> <path d="M267.2,21.8h-1.3v6H265v-6h-1.1v-0.7h1.1v-0.6c0-1.2,0.3-2,1.6-2c0.2,0,0.4,0,0.7,0.1v0.7c-0.2,0-0.4-0.1-0.6-0.1 c-0.9,0-0.9,0.6-0.9,1.3v0.6h1.3V21.8z"></path> <path d="M274,24.4c0,1.9-1.1,3.5-3.2,3.5s-3.2-1.6-3.2-3.5c0-1.9,1.1-3.5,3.2-3.5S274,22.5,274,24.4z M268.4,24.4 c0,1.4,0.8,2.9,2.4,2.9c1.6,0,2.4-1.4,2.4-2.9c0-1.4-0.8-2.9-2.4-2.9C269.2,21.6,268.4,23,268.4,24.4z"></path> <path d="M275.2,21.1h0.8v1.6h0c0.4-1.1,1.3-1.7,2.5-1.7v0.8c-1.5-0.1-2.5,1-2.5,2.4v3.6h-0.8V21.1z"></path> <path d="M283.1,18.5h0.9v5l5.4-5h1.2l-4.1,3.8l4.3,5.4h-1.1l-3.9-4.8l-1.8,1.7v3.2h-0.9V18.5z"></path> <path d="M291.8,24.7c0,1.2,0.6,2.6,2.2,2.6c1.2,0,1.8-0.7,2.1-1.7h0.8c-0.4,1.5-1.2,2.4-2.9,2.4c-2.1,0-3-1.6-3-3.5 c0-1.8,0.9-3.5,3-3.5c2.2,0,3,1.9,3,3.8H291.8z M296.1,24c0-1.2-0.8-2.4-2.1-2.4c-1.3,0-2.1,1.2-2.2,2.4H296.1z"></path> <path d="M297.3,21.1h0.9l2.2,5.7l2.1-5.7h0.8l-2.9,7.7c-0.5,1.1-0.7,1.5-1.8,1.5c-0.3,0-0.5,0-0.6-0.1v-0.7c0.2,0,0.4,0.1,0.6,0.1 c0.7,0,0.9-0.4,1.2-1.1l0.3-0.8L297.3,21.1z"></path> <path d="M304.1,18.5h0.8v3.8h0c0.4-1,1.3-1.5,2.3-1.5c2,0,3,1.7,3,3.5c0,1.9-1,3.5-3,3.5c-1.1,0-2-0.6-2.4-1.5h0v1.3h-0.8V18.5z M307.3,21.6c-1.7,0-2.4,1.5-2.4,2.9c0,1.4,0.6,2.9,2.4,2.9c1.6,0,2.2-1.5,2.2-2.9C309.5,23.1,308.8,21.6,307.3,21.6z"></path> <path d="M317.6,24.4c0,1.9-1.1,3.5-3.2,3.5c-2.1,0-3.2-1.6-3.2-3.5c0-1.9,1.1-3.5,3.2-3.5C316.4,20.9,317.6,22.5,317.6,24.4z M312,24.4c0,1.4,0.8,2.9,2.4,2.9s2.4-1.4,2.4-2.9c0-1.4-0.8-2.9-2.4-2.9S312,23,312,24.4z"></path> <path d="M318.7,23.1c0.1-1.6,1.2-2.2,2.7-2.2c1.2,0,2.5,0.4,2.5,2.2v3.6c0,0.3,0.2,0.5,0.5,0.5c0.1,0,0.2,0,0.3-0.1v0.7 c-0.2,0-0.3,0.1-0.5,0.1c-0.8,0-1-0.5-1-1.2h0c-0.6,0.9-1.2,1.4-2.4,1.4c-1.2,0-2.2-0.6-2.2-2c0-1.9,1.8-2,3.6-2.2 c0.7-0.1,1.1-0.2,1.1-0.9c0-1.1-0.8-1.4-1.8-1.4c-1,0-1.8,0.5-1.8,1.6H318.7z M323.1,24.1L323.1,24.1c-0.1,0.2-0.5,0.3-0.7,0.3 c-1.4,0.2-3.1,0.2-3.1,1.5c0,0.8,0.7,1.3,1.5,1.3c1.2,0,2.4-0.8,2.3-2.1V24.1z"></path> <path d="M325.5,21.1h0.8v1.6h0c0.4-1.1,1.3-1.7,2.5-1.7v0.8c-1.5-0.1-2.5,1-2.5,2.4v3.6h-0.8V21.1z"></path> <path d="M335.3,27.8h-0.8v-1.3h0c-0.4,0.9-1.4,1.5-2.4,1.5c-2,0-3-1.7-3-3.5c0-1.9,1-3.5,3-3.5c1,0,2,0.5,2.3,1.5h0v-3.8h0.8V27.8z M332.1,27.3c1.7,0,2.4-1.5,2.4-2.9c0-1.4-0.6-2.9-2.4-2.9c-1.6,0-2.2,1.5-2.2,2.9C329.9,25.8,330.6,27.3,332.1,27.3z"></path> <path d="M340.6,18.5h0.9v5l5.4-5h1.2l-4.1,3.8l4.3,5.4h-1.1l-3.9-4.8l-1.8,1.7v3.2h-0.9V18.5z"></path> <path d="M348.8,23.1c0.1-1.6,1.2-2.2,2.7-2.2c1.2,0,2.5,0.4,2.5,2.2v3.6c0,0.3,0.2,0.5,0.5,0.5c0.1,0,0.2,0,0.3-0.1v0.7 c-0.2,0-0.3,0.1-0.5,0.1c-0.8,0-1-0.5-1-1.2h0c-0.6,0.9-1.2,1.4-2.4,1.4c-1.2,0-2.2-0.6-2.2-2c0-1.9,1.8-2,3.6-2.2 c0.7-0.1,1.1-0.2,1.1-0.9c0-1.1-0.8-1.4-1.8-1.4c-1,0-1.8,0.5-1.8,1.6H348.8z M353.2,24.1L353.2,24.1c-0.1,0.2-0.5,0.3-0.7,0.3 c-1.4,0.2-3.1,0.2-3.1,1.5c0,0.8,0.7,1.3,1.5,1.3c1.2,0,2.4-0.8,2.3-2.1V24.1z"></path> <path d="M355.6,18.5h0.8v3.7h0c0.3-0.8,1.2-1.4,2.1-1.4c1.9,0,2.5,1,2.5,2.6v4.3h-0.8v-4.2c0-1.2-0.4-2-1.7-2c-1.3,0-2.1,1-2.1,2.3 v3.9h-0.8V18.5z"></path> <path d="M368,27.8h-0.8v-1.2h0c-0.4,0.9-1.3,1.4-2.3,1.4c-1.7,0-2.4-1-2.4-2.5v-4.4h0.8v4.4c0,1.2,0.5,1.8,1.8,1.8 c1.4,0,2-1.3,2-2.7v-3.5h0.8V27.8z"></path> <path d="M369.6,21.1h0.8v1.2h0c0.3-0.8,1.2-1.4,2.1-1.4c1.9,0,2.5,1,2.5,2.6v4.3h-0.8v-4.2c0-1.2-0.4-2-1.7-2c-1.3,0-2.1,1-2.1,2.3 v3.9h-0.8V21.1z"></path> <path d="M376.5,23.1c0.1-1.6,1.2-2.2,2.7-2.2c1.2,0,2.5,0.4,2.5,2.2v3.6c0,0.3,0.2,0.5,0.5,0.5c0.1,0,0.2,0,0.3-0.1v0.7 c-0.2,0-0.3,0.1-0.5,0.1c-0.8,0-1-0.5-1-1.2h0c-0.6,0.9-1.2,1.4-2.4,1.4c-1.2,0-2.2-0.6-2.2-2c0-1.9,1.8-2,3.6-2.2 c0.7-0.1,1.1-0.2,1.1-0.9c0-1.1-0.8-1.4-1.8-1.4c-1,0-1.8,0.5-1.8,1.6H376.5z M380.9,24.1L380.9,24.1c-0.1,0.2-0.5,0.3-0.7,0.3 c-1.4,0.2-3.1,0.2-3.1,1.5c0,0.8,0.7,1.3,1.5,1.3c1.2,0,2.4-0.8,2.3-2.1V24.1z"></path> </g> <g> <g> <path class="st0" d="M563.2,26.5v-3.9c0-0.9-0.4-1.3-1.4-1.3h-4.3v5.2h-2.4V14.1h2.4v5.1h4.3c0.9,0,1.4-0.3,1.4-1.4v-3.7h2.3v3.5 c0,1.5-0.6,2.2-1.9,2.5v0.1c1.2,0.3,1.9,0.9,1.9,2.2v4.1H563.2z"></path> <path class="st0" d="M576.9,26.6h-5.5c-2.6,0-3.9-1.2-3.9-3.8v-4.9c0-2.4,1.1-3.8,3.8-3.8h5.5l0.2,0.2V16h-5.1c-1.4,0-2,0.6-2,1.9 v1.3h5.8v2h-5.8v1.6c0,1.3,0.7,1.8,2,1.8h5.1v1.9L576.9,26.6z"></path> <path class="st0" d="M586.3,26.6h-6.8l-0.2-0.2v-1.8h6.5c0.9,0,1.3-0.2,1.3-1.2v-2.3c-0.5,0.8-1.2,0.9-2.1,0.9c-0.2,0-3,0-3,0 c-2,0-2.9-1.2-2.9-2.9v-5h2.4v4.6c0,0.9,0.5,1.3,1.4,1.3h2.9c0.9,0,1.4-0.5,1.4-1.2v-4.7h2.4v9C589.4,25.4,588.5,26.6,586.3,26.6"></path> <path class="st0" d="M599.7,22.1c0-0.6-0.3-0.9-1.1-0.9H594v3.3h4.6c0.9,0,1.1-0.3,1.1-1L599.7,22.1L599.7,22.1z M599.7,17 c0-0.6-0.4-0.8-1.2-0.8H594v3.1h4.7c0.7,0,1-0.3,1-0.9V17z M598.9,26.5h-7.3V14.1h7.4c1.8,0,3,0.8,3,2.6v1.2c0,1.6-0.7,2-1.8,2.3 v0.1c1.4,0.3,1.8,1.1,1.8,2.2v1.3C602,26,600.6,26.5,598.9,26.5"></path> <path class="st0" d="M612,18c0-1.7-1.6-2.1-2.8-2.1c-1.7,0-2.8,0.4-2.8,2.2v4.6c0,1.5,0.8,2.2,2.8,2.2c1.6,0,2.8-0.7,2.8-2.1V18z M609.1,26.7c-2.6,0-5.2-1.1-5.2-4.1v-4.5c0-3.1,2.5-4.1,5.2-4.1c2.7,0,5.2,1.1,5.2,4.1v4.4C614.3,25.6,612,26.7,609.1,26.7"></path> <path class="st0" d="M624.3,18c0-1.8-1.6-2.2-2.9-2.2c-1.4,0-2.8,0.3-2.8,2.2v3.6h5.6L624.3,18L624.3,18z M624.3,26.5v-2.9h-5.6 v2.9h-2.2v-8.4c0-3.1,2.4-4.2,5.1-4.2c2.7,0,5.1,1.2,5.1,4.1v8.5H624.3z"></path> <path class="st0" d="M637,17.3c0-0.9-0.6-1.1-1.4-1.1h-4.3v4.6h4.3c0.7,0,1.4-0.3,1.4-1.2V17.3z M637,26.5v-2.7 c0-0.8-0.6-1.1-1.3-1.1h-4.4v3.8h-2.4V14.1h7.2c2.2,0,3.2,1.1,3.2,2.9v2.1c0,1.5-0.5,2.3-1.7,2.4v0.1c1.4,0.3,1.7,1.2,1.7,2.3v2.5 L637,26.5L637,26.5z"></path> <path class="st0" d="M649.3,17.8c0-1.2-0.7-1.7-1.9-1.7h-3.5v8.4h3.7c1.3,0,1.8-0.6,1.8-1.9V17.8z M647.8,26.5h-6.3V14.1h6.3 c2.7,0,3.9,1.2,3.9,3.9v4.6C651.7,25.4,650.4,26.5,647.8,26.5"></path> <path class="st0" d="M664.7,26.5V22h-3.2v4.5h-3.9V14.1h3.9v4.5h3.2v-4.5h3.8v3.7c0,1.6-0.8,2.1-1.9,2.3v0.2 c1.5,0.4,2.1,1.1,2.1,2.4v3.8L664.7,26.5L664.7,26.5z"></path> <path class="st0" d="M677.5,17.2h-3.3v4h3.3V17.2z M677.5,26.5v-2.3h-3.3v2.3h-3.6v-8.2c0-3.5,2.4-4.3,5.5-4.3 c3,0,5.3,0.7,5.3,4.1v8.4L677.5,26.5L677.5,26.5z"></path> </g> <polygon class="st0" points="690.6,26.5 690.6,22 687.4,22 687.4,26.5 683.4,26.5 683.4,14.1 687.4,14.1 687.4,18.6 690.6,18.6 690.6,14.1 694.5,14.1 694.5,26.5 "></polygon> <g> <path class="st0" d="M702,26.7c-3,0-5.4-0.8-5.4-4.1v-8.4h3.9v9.3h3.3v-9.3h3.6v8.3C707.4,25.9,705.2,26.7,702,26.7"></path> <path class="st0" d="M716.6,26.5v-9.3h-3.2v9.3h-3.9v-8.4c0-3.5,2.5-4.1,5.5-4.1c3,0,5.5,0.7,5.5,4.1v8.4H716.6z"></path> <path class="st0" d="M729.4,17.2h-3.3v4h3.3V17.2z M729.4,26.5v-2.3h-3.3v2.3h-3.6v-8.2c0-3.5,2.4-4.3,5.5-4.3 c3,0,5.3,0.7,5.3,4.1v8.4L729.4,26.5L729.4,26.5z"></path> <path class="st0" d="M548.9,26.6c0,1.8-1.5,3.3-3.3,3.3h-22.1c-1.8,0-3.3-1.5-3.3-3.3V5.1c0-1.8,1.5-3.3,3.3-3.3h22.1 c1.8,0,3.3,1.5,3.3,3.3V26.6z"></path> <path class="st5" d="M532,14h5.1c0.6,0,1-0.5,1-1V7.9c0-0.5-0.3-0.8-0.7-1V5.4h-1.1V7h-1.1V4.7h-1.1V7H533V5.4h-1.1V7 c-0.5,0.1-0.8,0.5-0.8,1v5.1C531.1,13.6,531.5,14,532,14"></path> <path class="st5" d="M541.1,22.1h-4.1v-1.9h3.9c1.2,0,2-1,2-2.4v-3.6h-3.4V17c0,0.4-0.1,0.5-0.6,0.5h-1.9v-1.6h-4.5v1.6h-2.1 c-0.5,0-0.6-0.2-0.6-0.5v-2.8h-3.4v3.6c0,1.5,0.8,2.4,2,2.4h4.1v1.9h-4.3c-1.2,0-2,1-2,2.4v2.1h3.4v-1.4c0-0.4,0.1-0.5,0.6-0.5 h2.3v1.9h4.5v-1.9h2.1c0.5,0,0.6,0.2,0.6,0.5v1.4h3.4v-2.1C543,23,542.3,22.1,541.1,22.1"></path> </g> </g> <line class="st8" x1="453.9" y1="204.1" x2="453.9" y2="78.6"></line> <line class="st8" x1="473" y1="204.1" x2="473" y2="78.6"></line> <g> <g> <line class="st9" x1="134.2" y1="76.8" x2="148.8" y2="76.8"></line> <g> <polygon class="st10" points="134.9,77.3 134.3,76.8 134.9,76.2 134.4,76.2 133.8,76.8 134.4,77.3 "></polygon> </g> <g> <polygon class="st10" points="148.2,77.3 148.7,76.8 148.2,76.2 148.7,76.2 149.2,76.8 148.7,77.3 "></polygon> </g> </g> </g> <g class="st7"> <path d="M139.7,70.2h2.4v0.4l-1.7,1.9h1.7v0.5h-2.6v-0.4l1.6-1.9h-1.5V70.2z"></path> </g> <g> <g> <line class="st9" x1="456.4" y1="75.8" x2="471" y2="75.8"></line> <g> <polygon class="st10" points="457,76.3 456.5,75.8 457,75.2 456.6,75.2 456,75.8 456.6,76.3 "></polygon> </g> <g> <polygon class="st10" points="470.4,76.3 470.9,75.8 470.4,75.2 470.9,75.2 471.4,75.8 470.9,76.3 "></polygon> </g> </g> </g> <g class="st7"> <path d="M462.4,69.4h2.4v0.4l-1.7,1.9h1.7v0.5h-2.6v-0.4l1.6-1.9h-1.5V69.4z"></path> </g> <line class="st8" x1="131.6" y1="204.1" x2="131.6" y2="78.6"></line> <line class="st8" x1="150.7" y1="204.1" x2="150.7" y2="78.6"></line> <g> <g> <line class="st9" x1="115.1" y1="76.8" x2="129.8" y2="76.8"></line> <g> <polygon class="st10" points="115.8,77.3 115.2,76.8 115.8,76.2 115.3,76.2 114.7,76.8 115.3,77.3 "></polygon> </g> <g> <polygon class="st10" points="129.1,77.3 129.7,76.8 129.1,76.2 129.6,76.2 130.1,76.8 129.6,77.3 "></polygon> </g> </g> </g> <g class="st7"> <path d="M120.6,70.2h2.4v0.4l-1.7,1.9h1.7v0.5h-2.6v-0.4l1.6-1.9h-1.5V70.2z"></path> </g> <line class="st8" x1="112.5" y1="204.1" x2="112.5" y2="78.6"></line> <rect x="31" y="145.2" transform="matrix(-1 -1.224647e-16 1.224647e-16 -1 181.2561 309.6761)" class="st2" width="119.3" height="19.3"></rect> <line class="st8" x1="19.8" y1="164.5" x2="156.9" y2="164.5"></line> <rect x="31" y="125.5" transform="matrix(-1 -1.224647e-16 1.224647e-16 -1 181.2561 270.3591)" class="st2" width="119.3" height="19.3"></rect> <line class="st8" x1="19.8" y1="145" x2="156.9" y2="145"></line> <line class="st8" x1="19.8" y1="125.2" x2="156.9" y2="125.2"></line> <g> <g> <line class="st11" x1="27.8" y1="130.6" x2="27.8" y2="126.5"></line> <g> <polygon class="st12" points="28.4,129.9 27.8,130.5 27.2,129.9 27.2,130.4 27.8,131 28.4,130.4 "></polygon> </g> <g> <polygon class="st12" points="28.4,127.2 27.8,126.6 27.2,127.2 27.2,126.7 27.8,126.1 28.4,126.7 "></polygon> </g> </g> </g> <g class="st7"> <path d="M24.2,129.3l-1-1.4h0.8l0.6,0.9l0.6-0.9h0.7l-1,1.3l1.1,1.6h-0.8l-0.7-1.1l-0.7,1.1h-0.8L24.2,129.3z"></path> </g> <g> <g> <line class="st11" x1="27.9" y1="164" x2="27.9" y2="159.9"></line> <g> <polygon class="st12" points="28.4,163.3 27.9,163.9 27.3,163.3 27.3,163.8 27.9,164.4 28.4,163.8 "></polygon> </g> <g> <polygon class="st12" points="28.4,160.6 27.9,160 27.3,160.6 27.3,160.1 27.9,159.5 28.4,160.1 "></polygon> </g> </g> </g> <g class="st7"> <path d="M24.4,161.3l-1-1.4h0.8l0.6,0.9l0.6-0.9h0.7l-1,1.3l1.1,1.6h-0.8l-0.7-1.1l-0.7,1.1h-0.8L24.4,161.3z"></path> </g> <g> <g> <line class="st11" x1="188.7" y1="188.9" x2="184.7" y2="188.9"></line> <g> <polygon class="st12" points="188.1,188.3 188.6,188.9 188.1,189.4 188.5,189.4 189.1,188.9 188.5,188.3 "></polygon> </g> <g> <polygon class="st12" points="185.3,188.3 184.8,188.9 185.3,189.4 184.9,189.4 184.3,188.9 184.9,188.3 "></polygon> </g> </g> </g> <g class="st7"> <path d="M186.5,193.1l-1-1.4h0.8l0.6,0.9l0.6-0.9h0.7l-1,1.3l1.1,1.6h-0.8l-0.7-1.1l-0.7,1.1h-0.8L186.5,193.1z"></path> </g> <g> <g> <line class="st11" x1="225.1" y1="188.9" x2="221" y2="188.9"></line> <g> <polygon class="st12" points="224.4,188.3 225,188.9 224.4,189.4 224.9,189.4 225.5,188.9 224.9,188.3 "></polygon> </g> <g> <polygon class="st12" points="221.7,188.3 221.1,188.9 221.7,189.4 221.2,189.4 220.6,188.9 221.2,188.3 "></polygon> </g> </g> </g> <g class="st7"> <path d="M222.8,193.1l-1-1.4h0.8l0.6,0.9l0.6-0.9h0.7l-1,1.3l1.1,1.6h-0.8l-0.7-1.1l-0.7,1.1h-0.8L222.8,193.1z"></path> </g> <g> <g> <line class="st11" x1="264.6" y1="188.9" x2="260.5" y2="188.9"></line> <g> <polygon class="st12" points="263.9,188.3 264.5,188.9 263.9,189.4 264.4,189.4 265,188.9 264.4,188.3 "></polygon> </g> <g> <polygon class="st12" points="261.2,188.3 260.6,188.9 261.2,189.4 260.7,189.4 260.1,188.9 260.7,188.3 "></polygon> </g> </g> </g> <g class="st7"> <path d="M262.3,193.1l-1-1.4h0.8l0.6,0.9l0.6-0.9h0.7l-1,1.3l1.1,1.6h-0.8l-0.7-1.1l-0.7,1.1h-0.8L262.3,193.1z"></path> </g> <g> <g> <line class="st11" x1="303.7" y1="188.9" x2="299.7" y2="188.9"></line> <g> <polygon class="st12" points="303,188.3 303.6,188.9 303,189.4 303.5,189.4 304.1,188.9 303.5,188.3 "></polygon> </g> <g> <polygon class="st12" points="300.3,188.3 299.8,188.9 300.3,189.4 299.8,189.4 299.3,188.9 299.8,188.3 "></polygon> </g> </g> </g> <g class="st7"> <path d="M301.5,193.1l-1-1.4h0.8l0.6,0.9l0.6-0.9h0.7l-1,1.3l1.1,1.6h-0.8l-0.7-1.1l-0.7,1.1h-0.8L301.5,193.1z"></path> </g> <g> <g> <line class="st11" x1="342.8" y1="188.9" x2="338.8" y2="188.9"></line> <g> <polygon class="st12" points="342.2,188.3 342.7,188.9 342.2,189.4 342.7,189.4 343.2,188.9 342.7,188.3 "></polygon> </g> <g> <polygon class="st12" points="339.5,188.3 338.9,188.9 339.5,189.4 339,189.4 338.4,188.9 339,188.3 "></polygon> </g> </g> </g> <g class="st7"> <path d="M340.6,193.1l-1-1.4h0.8l0.6,0.9l0.6-0.9h0.7l-1,1.3l1.1,1.6h-0.8l-0.7-1.1l-0.7,1.1h-0.8L340.6,193.1z"></path> </g> <g> <g> <line class="st11" x1="381.6" y1="188.9" x2="377.5" y2="188.9"></line> <g> <polygon class="st12" points="380.9,188.3 381.5,188.9 380.9,189.4 381.4,189.4 382,188.9 381.4,188.3 "></polygon> </g> <g> <polygon class="st12" points="378.2,188.3 377.6,188.9 378.2,189.4 377.7,189.4 377.2,188.9 377.7,188.3 "></polygon> </g> </g> </g> <g class="st7"> <path d="M379.3,193.1l-1-1.4h0.8l0.6,0.9l0.6-0.9h0.7l-1,1.3l1.1,1.6h-0.8l-0.7-1.1l-0.7,1.1h-0.8L379.3,193.1z"></path> </g> <g> <g> <line class="st11" x1="420.9" y1="188.9" x2="416.9" y2="188.9"></line> <g> <polygon class="st12" points="420.3,188.3 420.8,188.9 420.3,189.4 420.7,189.4 421.3,188.9 420.7,188.3 "></polygon> </g> <g> <polygon class="st12" points="417.5,188.3 417,188.9 417.5,189.4 417.1,189.4 416.5,188.9 417.1,188.3 "></polygon> </g> </g> </g> <g class="st7"> <path d="M418.7,193.1l-1-1.4h0.8l0.6,0.9l0.6-0.9h0.7l-1,1.3l1.1,1.6h-0.8l-0.7-1.1l-0.7,1.1h-0.8L418.7,193.1z"></path> </g> <g> <g> <line class="st11" x1="149.4" y1="188.9" x2="145.4" y2="188.9"></line> <g> <polygon class="st12" points="148.8,188.3 149.3,188.9 148.8,189.4 149.2,189.4 149.8,188.9 149.2,188.3 "></polygon> </g> <g> <polygon class="st12" points="146,188.3 145.5,188.9 146,189.4 145.6,189.4 145,188.9 145.6,188.3 "></polygon> </g> </g> </g> <g> <g> <line class="st11" x1="143.1" y1="188.9" x2="139.1" y2="188.9"></line> <g> <polygon class="st12" points="142.5,188.3 143.1,188.9 142.5,189.4 143,189.4 143.5,188.9 143,188.3 "></polygon> </g> <g> <polygon class="st12" points="139.8,188.3 139.2,188.9 139.8,189.4 139.3,189.4 138.7,188.9 139.3,188.3 "></polygon> </g> </g> </g> <g class="st7"> <path d="M137.9,193.5l-1-1.4h0.8l0.6,0.9l0.6-0.9h0.7l-1,1.3l1.1,1.6H139l-0.7-1.1l-0.7,1.1h-0.8L137.9,193.5z"></path> <path d="M140.3,191.8l0.1-0.4l0.6,0.2V191h0.4v0.7l0.6-0.2l0.1,0.4l-0.6,0.2l0.4,0.5l-0.3,0.2l-0.4-0.5l-0.4,0.5l-0.3-0.2l0.4-0.5 L140.3,191.8z"></path> <path d="M143.9,192.7c0.4,0,0.9-0.1,0.9-0.6c0-0.3-0.3-0.6-0.6-0.6c-0.4,0-0.7,0.4-0.7,0.8h-0.6c0-0.8,0.5-1.3,1.3-1.3 c0.6,0,1.2,0.4,1.2,1c0,0.4-0.2,0.7-0.6,0.8v0c0.4,0.1,0.7,0.5,0.7,1c0,0.7-0.6,1.2-1.4,1.2c-0.9,0-1.4-0.5-1.4-1.4h0.6 c0,0.5,0.2,0.8,0.7,0.8c0.4,0,0.8-0.3,0.8-0.7c0-0.6-0.5-0.7-1-0.7V192.7z"></path> </g> <g> <g> <line class="st11" x1="136.8" y1="188.9" x2="132.7" y2="188.9"></line> <g> <polygon class="st12" points="136.1,188.3 136.7,188.9 136.1,189.4 136.6,189.4 137.2,188.9 136.6,188.3 "></polygon> </g> <g> <polygon class="st12" points="133.4,188.3 132.8,188.9 133.4,189.4 132.9,189.4 132.4,188.9 132.9,188.3 "></polygon> </g> </g> </g> <g> <g> <line class="st11" x1="463.6" y1="130.6" x2="463.6" y2="126.5"></line> <g> <polygon class="st12" points="464.1,129.9 463.6,130.5 463,129.9 463,130.4 463.6,131 464.1,130.4 "></polygon> </g> <g> <polygon class="st12" points="464.1,127.2 463.6,126.6 463,127.2 463,126.7 463.6,126.1 464.1,126.7 "></polygon> </g> </g> </g> <g class="st7"> <path d="M467.1,128.8l-1-1.4h0.8l0.6,0.9l0.6-0.9h0.7l-1,1.3l1.1,1.6h-0.8l-0.7-1.1l-0.7,1.1H466L467.1,128.8z"></path> </g> <g> <g> <line class="st11" x1="463.6" y1="164" x2="463.6" y2="159.9"></line> <g> <polygon class="st12" points="464.2,163.3 463.6,163.9 463,163.3 463,163.8 463.6,164.4 464.2,163.8 "></polygon> </g> <g> <polygon class="st12" points="464.2,160.6 463.6,160 463,160.6 463,160.1 463.6,159.5 464.2,160.1 "></polygon> </g> </g> </g> <g class="st7"> <path d="M467.2,162.1l-1-1.4h0.8l0.6,0.9l0.6-0.9h0.7l-1,1.3l1.1,1.6h-0.8l-0.7-1.1l-0.7,1.1h-0.8L467.2,162.1z"></path> </g> <line class="st8" x1="40.6" y1="204.1" x2="40.6" y2="78.6"></line> <g> <g> <line class="st9" x1="43.2" y1="76.8" x2="57.9" y2="76.8"></line> <g> <polygon class="st10" points="43.9,77.3 43.3,76.8 43.9,76.2 43.4,76.2 42.8,76.8 43.4,77.3 "></polygon> </g> <g> <polygon class="st10" points="57.2,77.3 57.8,76.8 57.2,76.2 57.7,76.2 58.3,76.8 57.7,77.3 "></polygon> </g> </g> </g> <g class="st7"> <path d="M48.8,70.2h2.4v0.4l-1.7,1.9h1.7v0.5h-2.6v-0.4l1.6-1.9h-1.5V70.2z"></path> </g> <g> <g> <line class="st9" x1="17.9" y1="127.6" x2="17.9" y2="142.2"></line> <g> <polygon class="st10" points="17.3,128.2 17.9,127.7 18.5,128.2 18.5,127.7 17.9,127.2 17.3,127.7 "></polygon> </g> <g> <polygon class="st10" points="17.3,141.6 17.9,142.1 18.5,141.6 18.5,142 17.9,142.6 17.3,142 "></polygon> </g> </g> </g> <g class="st7"> <path d="M13.4,133.2h2.4v0.4l-1.7,1.9h1.7v0.5h-2.6v-0.4l1.6-1.9h-1.5V133.2z"></path> </g> <g> <g> <line class="st13" x1="24.7" y1="88.2" x2="24.7" y2="95.9"></line> <g> <polygon class="st14" points="24.1,88.9 24.7,88.3 25.3,88.9 25.3,88.4 24.7,87.8 24.1,88.4 "></polygon> </g> <g> <polygon class="st14" points="24.1,95.2 24.7,95.8 25.3,95.2 25.3,95.7 24.7,96.3 24.1,95.7 "></polygon> </g> </g> </g> <g class="st7"> <path d="M19.9,90.7h0.7l0.7,2.2h0l0.7-2.2h0.7l-1,2.9h-0.7L19.9,90.7z"></path> </g> <g> <g> <line class="st13" x1="24.7" y1="166.3" x2="24.7" y2="174"></line> <g> <polygon class="st14" points="24.1,167 24.7,166.4 25.3,167 25.3,166.5 24.7,165.9 24.1,166.5 "></polygon> </g> <g> <polygon class="st14" points="24.1,173.3 24.7,173.9 25.3,173.3 25.3,173.8 24.7,174.4 24.1,173.8 "></polygon> </g> </g> </g> <g class="st7"> <path d="M19.9,168.8h0.7l0.7,2.2h0l0.7-2.2h0.7l-1,2.9h-0.7L19.9,168.8z"></path> </g> <g> <g> <line class="st15" x1="7.8" y1="88.9" x2="7.8" y2="122.9"></line> <g> <polygon class="st16" points="7.2,89.6 7.8,89 8.4,89.6 8.4,89.1 7.8,88.5 7.2,89.1 "></polygon> </g> <g> <polygon class="st16" points="7.2,122.2 7.8,122.8 8.4,122.2 8.4,122.7 7.8,123.3 7.2,122.7 "></polygon> </g> </g> </g> <g class="st7"> <path d="M2.1,103.6h0.7l0.8,2.2h0l0.7-2.2H5l-1.1,3.1c-0.2,0.5-0.4,1-1,1c-0.2,0-0.3,0-0.4,0v-0.5c0.1,0,0.2,0,0.3,0 c0.3,0,0.4-0.2,0.4-0.4l0.1-0.2L2.1,103.6z"></path> </g> <g> <g> <line class="st15" x1="7.8" y1="128.3" x2="7.8" y2="162.3"></line> <g> <polygon class="st16" points="7.2,129 7.8,128.4 8.4,129 8.4,128.5 7.8,128 7.2,128.5 "></polygon> </g> <g> <polygon class="st16" points="7.2,161.6 7.8,162.2 8.4,161.6 8.4,162.1 7.8,162.7 7.2,162.1 "></polygon> </g> </g> </g> <g class="st7"> <path d="M2.1,143.1h0.7l0.8,2.2h0l0.7-2.2H5l-1.1,3.1c-0.2,0.5-0.4,1-1,1c-0.2,0-0.3,0-0.4,0v-0.5c0.1,0,0.2,0,0.3,0 c0.3,0,0.4-0.2,0.4-0.4l0.1-0.2L2.1,143.1z"></path> </g> <g> <g> <line class="st15" x1="725" y1="88.9" x2="725" y2="122.9"></line> <g> <polygon class="st16" points="724.5,89.6 725,89 725.6,89.6 725.6,89.1 725,88.5 724.5,89.1 "></polygon> </g> <g> <polygon class="st16" points="724.5,122.2 725,122.8 725.6,122.2 725.6,122.7 725,123.3 724.5,122.7 "></polygon> </g> </g> </g> <g class="st7"> <path d="M728.4,103.6h0.7l0.8,2.2h0l0.7-2.2h0.7l-1.1,3.1c-0.2,0.5-0.4,1-1,1c-0.2,0-0.3,0-0.4,0v-0.5c0.1,0,0.2,0,0.3,0 c0.3,0,0.4-0.2,0.4-0.4l0.1-0.2L728.4,103.6z"></path> </g> <g> <g> <line class="st15" x1="725" y1="128.3" x2="725" y2="162.3"></line> <g> <polygon class="st16" points="724.5,129 725,128.4 725.6,129 725.6,128.5 725,128 724.5,128.5 "></polygon> </g> <g> <polygon class="st16" points="724.5,161.6 725,162.2 725.6,161.6 725.6,162.1 725,162.7 724.5,162.1 "></polygon> </g> </g> </g> <g class="st7"> <path d="M728.4,143.1h0.7l0.8,2.2h0l0.7-2.2h0.7l-1.1,3.1c-0.2,0.5-0.4,1-1,1c-0.2,0-0.3,0-0.4,0v-0.5c0.1,0,0.2,0,0.3,0 c0.3,0,0.4-0.2,0.4-0.4l0.1-0.2L728.4,143.1z"></path> </g> <g> <g> <line class="st15" x1="418" y1="65.7" x2="452" y2="65.7"></line> <g> <polygon class="st16" points="418.7,66.2 418.1,65.7 418.7,65.1 418.2,65.1 417.6,65.7 418.2,66.2 "></polygon> </g> <g> <polygon class="st16" points="451.3,66.2 451.9,65.7 451.3,65.1 451.8,65.1 452.3,65.7 451.8,66.2 "></polygon> </g> </g> </g> <g class="st7"> <path d="M433,59.2h0.7l0.8,2.2h0l0.7-2.2h0.7l-1.1,3.1c-0.2,0.5-0.4,1-1,1c-0.2,0-0.3,0-0.4,0v-0.5c0.1,0,0.2,0,0.3,0 c0.3,0,0.4-0.2,0.4-0.4l0.1-0.2L433,59.2z"></path> </g> <g> <g> <line class="st9" x1="17.9" y1="147.6" x2="17.9" y2="162.3"></line> <g> <polygon class="st10" points="17.3,148.3 17.9,147.7 18.5,148.3 18.5,147.8 17.9,147.2 17.3,147.8 "></polygon> </g> <g> <polygon class="st10" points="17.3,161.6 17.9,162.2 18.5,161.6 18.5,162.1 17.9,162.6 17.3,162.1 "></polygon> </g> </g> </g> <g class="st7"> <path d="M13.4,153.3h2.4v0.4l-1.7,1.9h1.7v0.5h-2.6v-0.4l1.6-1.9h-1.5V153.3z"></path> </g> <line class="st8" x1="59.7" y1="204.1" x2="59.7" y2="78.6"></line> <line class="st17" x1="11.9" y1="86.7" x2="721.3" y2="86.7"></line> <line class="st18" x1="26.9" y1="97" x2="134.9" y2="97"></line> <line class="st18" x1="26.9" y1="175.2" x2="134.9" y2="175.2"></line> <line class="st17" x1="12.4" y1="125.2" x2="721.8" y2="125.2"></line> <line class="st17" x1="415.7" y1="204.1" x2="415.7" y2="68.7"></line> <line class="st17" x1="453.9" y1="204.1" x2="453.9" y2="69.3"></line> <g> <g> <line class="st15" x1="114.8" y1="66.7" x2="148.8" y2="66.7"></line> <g> <polygon class="st16" points="115.5,67.2 114.9,66.7 115.5,66.1 115,66.1 114.4,66.7 115,67.2 "></polygon> </g> <g> <polygon class="st16" points="148.1,67.2 148.7,66.7 148.1,66.1 148.6,66.1 149.2,66.7 148.6,67.2 "></polygon> </g> </g> </g> <g class="st7"> <path d="M129.8,60.2h0.7l0.8,2.2h0l0.7-2.2h0.7l-1.1,3.1c-0.2,0.5-0.4,1-1,1c-0.2,0-0.3,0-0.4,0v-0.5c0.1,0,0.2,0,0.3,0 c0.3,0,0.4-0.2,0.4-0.4l0.1-0.2L129.8,60.2z"></path> </g> <line class="st17" x1="112.5" y1="204.1" x2="112.5" y2="68.7"></line> <line class="st17" x1="150.7" y1="204.1" x2="150.7" y2="69.3"></line> <line class="st17" x1="11.9" y1="164.5" x2="721.3" y2="164.5"></line> <line class="st19" x1="29" y1="158.5" x2="460.9" y2="158.5"></line> <line class="st19" x1="31.2" y1="164.5" x2="460.9" y2="164.5"></line> <line class="st19" x1="31.2" y1="125.2" x2="460.9" y2="125.2"></line> <line class="st19" x1="29" y1="131.6" x2="460.9" y2="131.6"></line> <line class="st19" x1="220" y1="186.1" x2="220" y2="109"></line> <line class="st19" x1="226.2" y1="186.1" x2="226.2" y2="109"></line> <line class="st19" x1="183.5" y1="186.1" x2="183.5" y2="109"></line> <line class="st19" x1="189.6" y1="186.1" x2="189.6" y2="109"></line> <line class="st19" x1="150.7" y1="185.9" x2="150.7" y2="108.8"></line> <line class="st19" x1="144.3" y1="186.1" x2="144.3" y2="109"></line> <line class="st19" x1="131.6" y1="186.1" x2="131.6" y2="109"></line> <line class="st19" x1="138" y1="186.1" x2="138" y2="109"></line> <g> <g> <line class="st11" x1="58.5" y1="188.9" x2="54.4" y2="188.9"></line> <g> <polygon class="st12" points="57.8,188.3 58.4,188.9 57.8,189.4 58.3,189.4 58.8,188.9 58.3,188.3 "></polygon> </g> <g> <polygon class="st12" points="55.1,188.3 54.5,188.9 55.1,189.4 54.6,189.4 54,188.9 54.6,188.3 "></polygon> </g> </g> </g> <g> <g> <line class="st11" x1="52.2" y1="188.9" x2="48.1" y2="188.9"></line> <g> <polygon class="st12" points="51.5,188.3 52.1,188.9 51.5,189.4 52,189.4 52.6,188.9 52,188.3 "></polygon> </g> <g> <polygon class="st12" points="48.8,188.3 48.2,188.9 48.8,189.4 48.3,189.4 47.7,188.9 48.3,188.3 "></polygon> </g> </g> </g> <g class="st7"> <path d="M46.9,193.5l-1-1.4h0.8l0.6,0.9l0.6-0.9h0.7l-1,1.3l1.1,1.6H48l-0.7-1.1l-0.7,1.1h-0.8L46.9,193.5z"></path> <path d="M49.3,191.8l0.1-0.4l0.6,0.2V191h0.4v0.7l0.6-0.2l0.1,0.4l-0.6,0.2l0.4,0.5l-0.3,0.2l-0.4-0.5l-0.4,0.5l-0.3-0.2l0.4-0.5 L49.3,191.8z"></path> <path d="M52.9,192.7c0.4,0,0.9-0.1,0.9-0.6c0-0.3-0.3-0.6-0.6-0.6c-0.4,0-0.7,0.4-0.7,0.8h-0.6c0-0.8,0.5-1.3,1.3-1.3 c0.6,0,1.2,0.4,1.2,1c0,0.4-0.2,0.7-0.6,0.8v0c0.4,0.1,0.7,0.5,0.7,1c0,0.7-0.6,1.2-1.4,1.2c-0.9,0-1.4-0.5-1.4-1.4h0.6 c0,0.5,0.2,0.8,0.7,0.8c0.4,0,0.8-0.3,0.8-0.7c0-0.6-0.5-0.7-1-0.7V192.7z"></path> </g> <g> <g> <line class="st11" x1="45.8" y1="188.9" x2="41.8" y2="188.9"></line> <g> <polygon class="st12" points="45.2,188.3 45.7,188.9 45.2,189.4 45.6,189.4 46.2,188.9 45.6,188.3 "></polygon> </g> <g> <polygon class="st12" points="42.4,188.3 41.9,188.9 42.4,189.4 42,189.4 41.4,188.9 42,188.3 "></polygon> </g> </g> </g> <line class="st19" x1="59.7" y1="185.9" x2="59.7" y2="108.8"></line> <line class="st19" x1="53.4" y1="186.1" x2="53.4" y2="109"></line> <line class="st19" x1="40.6" y1="186.1" x2="40.6" y2="109"></line> <line class="st19" x1="47" y1="186.1" x2="47" y2="109"></line> <line class="st19" x1="259.3" y1="186.1" x2="259.3" y2="109"></line> <line class="st19" x1="265.5" y1="186.1" x2="265.5" y2="109"></line> <line class="st19" x1="298.6" y1="186.1" x2="298.6" y2="109"></line> <line class="st19" x1="304.8" y1="186.1" x2="304.8" y2="109"></line> <line class="st19" x1="337.7" y1="186.1" x2="337.7" y2="109"></line> <line class="st19" x1="343.9" y1="186.1" x2="343.9" y2="109"></line> <line class="st19" x1="376.2" y1="186.1" x2="376.2" y2="109"></line> <line class="st19" x1="382.4" y1="186.1" x2="382.4" y2="109"></line> <line class="st19" x1="415.6" y1="186.1" x2="415.6" y2="109"></line> <line class="st19" x1="421.7" y1="186.1" x2="421.7" y2="109"></line> <g class="st7"> <path class="st16" d="M486.4,183.7h1.1l1.2,3.5h0l1.2-3.5h1.1l-1.8,5c-0.3,0.9-0.6,1.6-1.7,1.6c-0.2,0-0.5,0-0.7-0.1v-0.9 c0.2,0,0.3,0.1,0.5,0.1c0.5,0,0.6-0.3,0.7-0.7l0.1-0.4L486.4,183.7z"></path> <path d="M499.3,185.6h-4.6v-0.9h4.6V185.6z M499.3,187.5h-4.6v-0.9h4.6V187.5z"></path> <path d="M500.2,183.2l0.2-0.6l1,0.4v-1.1h0.6v1.1l1-0.4l0.2,0.6l-1,0.3l0.6,0.9l-0.5,0.4l-0.7-0.9l-0.6,0.9l-0.5-0.4l0.6-0.9 L500.2,183.2z"></path> <path d="M508.4,188.4H504c0-1.1,0.5-1.9,1.4-2.4c0.8-0.6,1.9-1.1,1.9-2.1c0-0.5-0.2-1.1-1.1-1.1c-0.8,0-1.1,0.7-1.1,1.6h-1 c0-1.4,0.8-2.5,2.2-2.5c1.6,0,2.1,1.1,2.1,2c0,1-0.7,1.7-1.4,2.2c-0.7,0.5-1.5,0.9-1.7,1.5h3.1V188.4z"></path> <path class="st10" d="M509.4,183.7h3.9v0.7l-2.7,3.2h2.9v0.8h-4.2v-0.7l2.6-3.2h-2.4V183.7z"></path> <path d="M519.1,181.7h1l-2.6,6.9h-1L519.1,181.7z"></path> <path d="M523.1,183.2l0.2-0.6l1,0.4v-1.1h0.6v1.1l1-0.4l0.2,0.6l-1,0.3l0.6,0.9l-0.5,0.4l-0.7-0.9l-0.6,0.9l-0.5-0.4l0.6-0.9 L523.1,183.2z"></path> <path d="M530.2,183.6c0-0.5-0.4-0.9-0.9-0.9c-1.1,0-1.3,1.4-1.3,2.2l0,0c0.3-0.5,0.8-0.8,1.4-0.8c1.3,0,2,0.9,2,2.2 c0,1.2-0.9,2.2-2.1,2.2c-1.9,0-2.3-1.5-2.3-3.4c0-1.5,0.6-3.3,2.4-3.3c1,0,1.9,0.7,1.9,1.8H530.2z M530.3,186.3 c0-0.7-0.4-1.3-1.1-1.3c-0.8,0-1.2,0.6-1.2,1.3c0,0.7,0.4,1.3,1.2,1.3C530,187.7,530.3,187,530.3,186.3z"></path> <path class="st20" d="M533.8,185.9l-1.6-2.2h1.3l1,1.5l1-1.5h1.2l-1.6,2.2l1.8,2.5h-1.3l-1.2-1.8l-1.2,1.8H532L533.8,185.9z"></path> </g> <g class="st7"> <path class="st10" d="M486.8,197.6h3.9v0.7l-2.7,3.2h2.9v0.8h-4.2v-0.7l2.6-3.2h-2.4V197.6z"></path> <path d="M499.1,199.6h-4.6v-0.9h4.6V199.6z M499.1,201.4h-4.6v-0.9h4.6V201.4z"></path> <path d="M500,197.1l0.2-0.6l1,0.4v-1.1h0.6v1.1l1-0.4l0.2,0.6l-1,0.3l0.6,0.9l-0.5,0.4l-0.7-0.9l-0.6,0.9l-0.5-0.4l0.6-0.9 L500,197.1z"></path> <path d="M505.6,198.6c0.7,0,1.4-0.2,1.4-1c0-0.5-0.4-0.9-1-0.9c-0.7,0-1.1,0.7-1.1,1.3h-1c0.1-1.2,0.8-2.2,2.1-2.2c1,0,2,0.6,2,1.7 c0,0.6-0.3,1.2-0.9,1.4v0c0.7,0.1,1.2,0.8,1.2,1.6c0,1.2-1,2-2.3,2c-1.5,0-2.2-0.9-2.3-2.2h1c0,0.8,0.4,1.4,1.2,1.4 c0.7,0,1.2-0.4,1.2-1.1c0-1-0.9-1.1-1.7-1.1V198.6z"></path> <path class="st20" d="M510.7,199.9l-1.6-2.2h1.3l1,1.5l1-1.5h1.2l-1.6,2.2l1.8,2.5h-1.3l-1.2-1.8l-1.2,1.8h-1.2L510.7,199.9z"></path> </g> </svg> 